<?xml version="1.0" encoding="utf-8"?>
<!-- Generator: Adobe Illustrator 27.5.0, SVG Export Plug-In . SVG Version: 6.00 Build 0)  -->
<svg version="1.1" xmlns="http://www.w3.org/2000/svg" xmlns:xlink="http://www.w3.org/1999/xlink" x="0px" y="0px"
	 viewBox="0 0 800 800" style="enable-background:new 0 0 800 800;" xml:space="preserve">
<g id="background">
	<g>
		<g>
			<path style="fill:#4B4B4B;" d="M286.024,774.287v-0.257c-0.349,0.398-0.692,0.724-1.031,0.973
				c-0.338,0.251-0.706,0.441-1.102,0.57c-0.396,0.132-0.827,0.195-1.296,0.195c-0.621,0-1.196-0.131-1.725-0.394
				c-0.528-0.263-0.986-0.639-1.372-1.126c-0.387-0.487-0.68-1.06-0.879-1.719c-0.199-0.659-0.299-1.371-0.299-2.137
				c0-1.621,0.396-2.886,1.188-3.791c0.792-0.904,1.833-1.357,3.125-1.357c0.747,0,1.377,0.129,1.89,0.384
				c0.513,0.257,1.013,0.652,1.501,1.183v-3.827c0-0.532,0.105-0.934,0.318-1.206c0.211-0.273,0.514-0.408,0.907-0.408
				c0.393,0,0.694,0.125,0.907,0.375c0.212,0.251,0.318,0.618,0.318,1.106v11.436c0,0.494-0.113,0.864-0.342,1.111
				c-0.228,0.246-0.522,0.37-0.883,0.37c-0.354,0-0.647-0.128-0.879-0.384C286.139,775.127,286.024,774.761,286.024,774.287z
				 M280.923,770.478c0,0.703,0.109,1.301,0.328,1.795c0.219,0.494,0.518,0.866,0.897,1.115c0.38,0.251,0.795,0.377,1.244,0.377
				c0.456,0,0.872-0.119,1.25-0.357c0.376-0.236,0.677-0.602,0.902-1.091c0.225-0.491,0.337-1.105,0.337-1.839
				c0-0.69-0.112-1.284-0.337-1.782c-0.225-0.496-0.528-0.876-0.912-1.14c-0.383-0.262-0.803-0.393-1.258-0.393
				c-0.475,0-0.899,0.135-1.273,0.403c-0.374,0.269-0.663,0.654-0.869,1.158C281.026,769.229,280.923,769.813,280.923,770.478z"/>
			<path style="fill:#4B4B4B;" d="M297.458,771.134h-5.071c0.006,0.588,0.124,1.107,0.356,1.557c0.23,0.45,0.538,0.789,0.921,1.017
				c0.383,0.229,0.806,0.341,1.268,0.341c0.31,0,0.593-0.035,0.85-0.107c0.257-0.074,0.505-0.187,0.746-0.343
				c0.241-0.154,0.462-0.321,0.664-0.499c0.202-0.178,0.464-0.419,0.788-0.723c0.133-0.113,0.323-0.171,0.571-0.171
				c0.266,0,0.48,0.074,0.645,0.22c0.165,0.146,0.248,0.351,0.248,0.617c0,0.234-0.093,0.507-0.275,0.821
				c-0.185,0.314-0.462,0.614-0.832,0.902c-0.371,0.288-0.835,0.526-1.397,0.717c-0.56,0.19-1.204,0.285-1.933,0.285
				c-1.665,0-2.96-0.476-3.884-1.425c-0.924-0.949-1.386-2.238-1.386-3.865c0-0.767,0.113-1.478,0.341-2.132
				c0.228-0.656,0.561-1.218,0.997-1.686c0.437-0.469,0.975-0.827,1.615-1.078c0.639-0.25,1.349-0.374,2.127-0.374
				c1.013,0,1.882,0.212,2.606,0.641c0.726,0.427,1.27,0.979,1.63,1.656c0.36,0.678,0.542,1.369,0.542,2.07
				c0,0.653-0.187,1.075-0.56,1.269C298.662,771.037,298.136,771.134,297.458,771.134z M292.386,769.662h4.702
				c-0.063-0.887-0.303-1.551-0.717-1.99c-0.415-0.44-0.96-0.66-1.638-0.66c-0.646,0-1.177,0.223-1.591,0.669
				C292.727,768.127,292.476,768.788,292.386,769.662z"/>
			<path style="fill:#4B4B4B;" d="M309.273,772.377c0,0.716-0.173,1.329-0.523,1.839c-0.348,0.51-0.862,0.896-1.543,1.159
				c-0.68,0.263-1.508,0.394-2.483,0.394c-0.931,0-1.728-0.143-2.394-0.428c-0.665-0.284-1.156-0.642-1.472-1.067
				c-0.317-0.429-0.475-0.857-0.475-1.288c0-0.285,0.101-0.528,0.304-0.731c0.202-0.202,0.459-0.304,0.77-0.304
				c0.272,0,0.48,0.066,0.626,0.199c0.146,0.133,0.286,0.32,0.417,0.56c0.266,0.464,0.585,0.807,0.956,1.036
				c0.37,0.227,0.875,0.342,1.515,0.342c0.519,0,0.945-0.116,1.277-0.347c0.332-0.232,0.498-0.496,0.498-0.794
				c0-0.456-0.172-0.787-0.518-0.996c-0.345-0.209-0.914-0.409-1.705-0.6c-0.893-0.221-1.619-0.454-2.18-0.698
				c-0.561-0.242-1.008-0.565-1.344-0.963c-0.335-0.399-0.503-0.891-0.503-1.473c0-0.518,0.155-1.01,0.465-1.473
				c0.311-0.461,0.768-0.83,1.374-1.105c0.604-0.276,1.333-0.414,2.188-0.414c0.671,0,1.275,0.069,1.809,0.21
				c0.536,0.138,0.983,0.326,1.34,0.561c0.358,0.233,0.63,0.493,0.816,0.777c0.187,0.285,0.28,0.563,0.28,0.837
				c0,0.297-0.1,0.541-0.298,0.731c-0.199,0.188-0.482,0.285-0.85,0.285c-0.266,0-0.492-0.076-0.679-0.23
				c-0.186-0.151-0.4-0.379-0.641-0.683c-0.196-0.253-0.426-0.456-0.693-0.608c-0.266-0.152-0.627-0.228-1.084-0.228
				c-0.469,0-0.857,0.099-1.168,0.3c-0.31,0.198-0.465,0.446-0.465,0.744c0,0.273,0.114,0.496,0.341,0.67
				c0.229,0.175,0.535,0.319,0.922,0.433c0.386,0.113,0.917,0.252,1.596,0.417c0.803,0.197,1.46,0.432,1.97,0.703
				c0.509,0.271,0.896,0.594,1.16,0.965C309.142,771.48,309.273,771.902,309.273,772.377z"/>
			<path style="fill:#4B4B4B;" d="M311.921,764.02c-0.361,0-0.669-0.111-0.926-0.333c-0.256-0.221-0.385-0.534-0.385-0.94
				c0-0.368,0.131-0.669,0.394-0.907c0.263-0.238,0.569-0.356,0.917-0.356c0.336,0,0.633,0.107,0.893,0.323
				c0.26,0.216,0.39,0.528,0.39,0.94c0,0.399-0.127,0.711-0.381,0.936C312.57,763.907,312.27,764.02,311.921,764.02z
				 M313.204,766.698v7.493c0,0.52-0.124,0.913-0.371,1.179c-0.248,0.266-0.56,0.398-0.94,0.398c-0.38,0-0.689-0.136-0.926-0.408
				c-0.238-0.273-0.356-0.662-0.356-1.169v-7.418c0-0.512,0.118-0.898,0.356-1.158c0.237-0.26,0.546-0.39,0.926-0.39
				c0.38,0,0.693,0.13,0.94,0.39C313.081,765.875,313.204,766.236,313.204,766.698z"/>
			<path style="fill:#4B4B4B;" d="M324.563,767.125v7.531c0,0.861-0.093,1.602-0.277,2.224c-0.182,0.619-0.477,1.133-0.883,1.538
				c-0.405,0.404-0.936,0.706-1.59,0.901c-0.655,0.197-1.471,0.295-2.446,0.295c-0.893,0-1.69-0.125-2.393-0.375
				c-0.702-0.251-1.243-0.573-1.624-0.969c-0.379-0.396-0.57-0.803-0.57-1.221c0-0.316,0.108-0.575,0.324-0.773
				c0.215-0.2,0.475-0.3,0.778-0.3c0.38,0,0.712,0.168,0.997,0.503c0.139,0.171,0.283,0.345,0.432,0.519
				c0.149,0.175,0.314,0.323,0.494,0.447c0.181,0.122,0.398,0.214,0.65,0.274c0.253,0.059,0.545,0.09,0.874,0.09
				c0.671,0,1.192-0.093,1.563-0.28c0.371-0.186,0.63-0.448,0.779-0.784c0.149-0.334,0.236-0.693,0.261-1.077
				c0.025-0.384,0.044-0.999,0.057-1.849c-0.399,0.559-0.859,0.983-1.382,1.274c-0.522,0.291-1.145,0.437-1.866,0.437
				c-0.868,0-1.626-0.222-2.275-0.665c-0.648-0.443-1.147-1.063-1.495-1.861c-0.349-0.799-0.522-1.719-0.522-2.764
				c0-0.778,0.105-1.482,0.317-2.108c0.213-0.628,0.515-1.156,0.907-1.587c0.393-0.431,0.845-0.755,1.358-0.974
				c0.513-0.218,1.076-0.327,1.691-0.327c0.734,0,1.371,0.142,1.909,0.422c0.538,0.283,1.039,0.725,1.501,1.326v-0.352
				c0-0.449,0.11-0.797,0.332-1.045c0.222-0.246,0.507-0.37,0.855-0.37c0.5,0,0.832,0.164,0.997,0.489
				C324.48,766.041,324.563,766.511,324.563,767.125z M317.05,770.412c0,1.051,0.229,1.846,0.688,2.384
				c0.459,0.539,1.053,0.808,1.781,0.808c0.43,0,0.837-0.116,1.22-0.347c0.384-0.232,0.695-0.58,0.937-1.045
				c0.24-0.466,0.361-1.03,0.361-1.695c0-1.057-0.233-1.881-0.698-2.469c-0.466-0.589-1.078-0.884-1.838-0.884
				c-0.741,0-1.334,0.282-1.78,0.846C317.273,768.572,317.05,769.374,317.05,770.412z"/>
			<path style="fill:#4B4B4B;" d="M328.684,766.66v0.313c0.455-0.602,0.954-1.043,1.496-1.325c0.542-0.281,1.163-0.423,1.866-0.423
				c0.684,0,1.295,0.149,1.833,0.447c0.538,0.298,0.941,0.719,1.206,1.262c0.172,0.317,0.282,0.66,0.333,1.026
				c0.051,0.368,0.077,0.836,0.077,1.406v4.824c0,0.52-0.119,0.913-0.357,1.179c-0.237,0.266-0.546,0.398-0.926,0.398
				c-0.387,0-0.7-0.136-0.94-0.408c-0.241-0.273-0.361-0.662-0.361-1.169v-4.321c0-0.854-0.119-1.509-0.357-1.961
				c-0.238-0.452-0.71-0.68-1.42-0.68c-0.461,0-0.883,0.138-1.263,0.413c-0.38,0.276-0.659,0.655-0.836,1.136
				c-0.126,0.387-0.19,1.107-0.19,2.165v3.248c0,0.525-0.123,0.921-0.365,1.184c-0.244,0.263-0.559,0.394-0.945,0.394
				c-0.374,0-0.681-0.136-0.922-0.408c-0.24-0.273-0.361-0.662-0.361-1.169v-7.493c0-0.494,0.107-0.863,0.323-1.107
				c0.215-0.243,0.51-0.365,0.883-0.365c0.229,0,0.435,0.054,0.619,0.162c0.183,0.108,0.331,0.269,0.441,0.483
				C328.628,766.086,328.684,766.35,328.684,766.66z"/>
			<path style="fill:#4B4B4B;" d="M344.458,771.134h-5.071c0.007,0.588,0.125,1.107,0.356,1.557c0.231,0.45,0.538,0.789,0.921,1.017
				c0.382,0.229,0.805,0.341,1.267,0.341c0.311,0,0.594-0.035,0.851-0.107c0.255-0.074,0.504-0.187,0.746-0.343
				c0.24-0.154,0.461-0.321,0.665-0.499c0.202-0.178,0.464-0.419,0.788-0.723c0.133-0.113,0.323-0.171,0.57-0.171
				c0.266,0,0.482,0.074,0.646,0.22c0.165,0.146,0.247,0.351,0.247,0.617c0,0.234-0.091,0.507-0.275,0.821
				c-0.184,0.314-0.461,0.614-0.831,0.902c-0.371,0.288-0.835,0.526-1.396,0.717c-0.561,0.19-1.205,0.285-1.933,0.285
				c-1.665,0-2.96-0.476-3.885-1.425c-0.923-0.949-1.386-2.238-1.386-3.865c0-0.767,0.114-1.478,0.342-2.132
				c0.228-0.656,0.561-1.218,0.998-1.686c0.437-0.469,0.975-0.827,1.614-1.078c0.639-0.25,1.349-0.374,2.128-0.374
				c1.013,0,1.881,0.212,2.606,0.641c0.726,0.427,1.269,0.979,1.63,1.656c0.36,0.678,0.542,1.369,0.542,2.07
				c0,0.653-0.186,1.075-0.56,1.269C345.662,771.037,345.136,771.134,344.458,771.134z M339.387,769.662h4.701
				c-0.063-0.887-0.302-1.551-0.717-1.99c-0.415-0.44-0.961-0.66-1.638-0.66c-0.646,0-1.177,0.223-1.592,0.669
				C339.726,768.127,339.476,768.788,339.387,769.662z"/>
			<path style="fill:#4B4B4B;" d="M355.028,774.287v-0.257c-0.348,0.398-0.691,0.724-1.03,0.973
				c-0.339,0.251-0.706,0.441-1.102,0.57c-0.395,0.132-0.828,0.195-1.296,0.195c-0.622,0-1.196-0.131-1.724-0.394
				c-0.529-0.263-0.986-0.639-1.373-1.126c-0.387-0.487-0.679-1.06-0.878-1.719c-0.2-0.659-0.299-1.371-0.299-2.137
				c0-1.621,0.396-2.886,1.187-3.791c0.792-0.904,1.834-1.357,3.125-1.357c0.747,0,1.378,0.129,1.89,0.384
				c0.513,0.257,1.013,0.652,1.5,1.183v-3.827c0-0.532,0.106-0.934,0.319-1.206c0.211-0.273,0.515-0.408,0.907-0.408
				c0.392,0,0.694,0.125,0.907,0.375c0.212,0.251,0.318,0.618,0.318,1.106v11.436c0,0.494-0.114,0.864-0.342,1.111
				c-0.228,0.246-0.522,0.37-0.883,0.37c-0.354,0-0.647-0.128-0.879-0.384C355.144,775.127,355.028,774.761,355.028,774.287z
				 M349.928,770.478c0,0.703,0.108,1.301,0.327,1.795c0.218,0.494,0.518,0.866,0.898,1.115c0.379,0.251,0.794,0.377,1.243,0.377
				c0.457,0,0.873-0.119,1.249-0.357c0.377-0.236,0.678-0.602,0.902-1.091c0.225-0.491,0.337-1.105,0.337-1.839
				c0-0.69-0.112-1.284-0.337-1.782c-0.224-0.496-0.528-0.876-0.912-1.14c-0.384-0.262-0.803-0.393-1.259-0.393
				c-0.474,0-0.899,0.135-1.273,0.403c-0.373,0.269-0.663,0.654-0.869,1.158C350.03,769.229,349.928,769.813,349.928,770.478z"/>
			<path style="fill:#4B4B4B;" d="M365.626,762.851v3.96c0.487-0.506,0.984-0.895,1.491-1.163c0.506-0.269,1.134-0.403,1.881-0.403
				c0.861,0,1.616,0.204,2.266,0.611c0.648,0.41,1.151,1.002,1.51,1.777c0.357,0.774,0.537,1.695,0.537,2.76
				c0,0.785-0.1,1.504-0.299,2.16c-0.2,0.655-0.49,1.224-0.869,1.704c-0.38,0.481-0.841,0.854-1.382,1.117
				c-0.542,0.263-1.139,0.394-1.79,0.394c-0.4,0-0.775-0.047-1.126-0.143c-0.352-0.095-0.651-0.219-0.898-0.375
				c-0.246-0.154-0.457-0.314-0.631-0.479c-0.174-0.164-0.404-0.412-0.689-0.741v0.257c0,0.487-0.117,0.856-0.352,1.107
				c-0.233,0.25-0.531,0.374-0.893,0.374c-0.367,0-0.66-0.124-0.878-0.374c-0.219-0.251-0.328-0.62-0.328-1.107v-11.322
				c0-0.525,0.106-0.923,0.317-1.191c0.212-0.269,0.509-0.403,0.889-0.403c0.399,0,0.706,0.128,0.921,0.384
				C365.518,762.011,365.626,762.375,365.626,762.851z M365.75,770.554c0,1.032,0.236,1.824,0.708,2.378
				c0.472,0.555,1.091,0.833,1.857,0.833c0.652,0,1.214-0.283,1.686-0.851c0.472-0.567,0.708-1.379,0.708-2.437
				c0-0.684-0.097-1.273-0.294-1.767c-0.197-0.494-0.475-0.876-0.835-1.145c-0.361-0.268-0.783-0.403-1.264-0.403
				c-0.494,0-0.935,0.135-1.32,0.403c-0.386,0.269-0.69,0.658-0.912,1.168C365.86,769.244,365.75,769.851,365.75,770.554z"/>
			<path style="fill:#4B4B4B;" d="M376.672,776.091l0.237-0.58l-3.191-8.035c-0.196-0.461-0.295-0.798-0.295-1.007
				c0-0.222,0.058-0.427,0.171-0.616c0.114-0.19,0.271-0.343,0.47-0.456c0.2-0.115,0.407-0.172,0.623-0.172
				c0.373,0,0.655,0.119,0.846,0.357c0.19,0.237,0.357,0.577,0.503,1.021l2.194,6.383l2.08-5.937
				c0.164-0.479,0.313-0.857,0.446-1.13c0.133-0.273,0.273-0.456,0.422-0.55c0.148-0.096,0.359-0.144,0.632-0.144
				c0.197,0,0.385,0.052,0.565,0.157c0.18,0.104,0.319,0.245,0.417,0.423c0.098,0.177,0.148,0.363,0.148,0.56
				c-0.026,0.12-0.066,0.291-0.124,0.514c-0.058,0.221-0.126,0.447-0.208,0.674l-3.381,8.852c-0.292,0.778-0.577,1.389-0.855,1.832
				c-0.279,0.443-0.647,0.785-1.106,1.021c-0.46,0.238-1.078,0.357-1.857,0.357c-0.759,0-1.33-0.082-1.708-0.246
				c-0.381-0.166-0.57-0.467-0.57-0.903c0-0.297,0.089-0.527,0.271-0.688c0.18-0.161,0.448-0.243,0.801-0.243
				c0.14,0,0.276,0.02,0.409,0.059c0.165,0.037,0.307,0.057,0.427,0.057c0.297,0,0.532-0.044,0.704-0.134
				c0.17-0.088,0.324-0.241,0.461-0.461C376.337,776.837,376.495,776.515,376.672,776.091z"/>
		</g>
		<g>
			<path style="fill:#4B4B4B;" d="M414.235,765.45h0.618v-0.778c0-0.814,0.1-1.457,0.307-1.938c0.204-0.479,0.556-0.826,1.047-1.045
				c0.49-0.217,1.163-0.326,2.017-0.326c1.52,0,2.272,0.367,2.272,1.114c0,0.238-0.079,0.444-0.24,0.615
				c-0.154,0.169-0.343,0.256-0.558,0.256c-0.1,0-0.278-0.019-0.527-0.06c-0.237-0.033-0.452-0.056-0.623-0.056
				c-0.468,0-0.767,0.141-0.905,0.415c-0.127,0.275-0.195,0.669-0.195,1.185v0.617h0.633c0.991,0,1.481,0.297,1.481,0.895
				c0,0.419-0.127,0.69-0.393,0.805c-0.262,0.114-0.624,0.171-1.089,0.171h-0.633v6.871c0,0.511-0.12,0.9-0.369,1.168
				c-0.241,0.272-0.554,0.406-0.942,0.406c-0.367,0-0.671-0.134-0.918-0.406c-0.244-0.268-0.364-0.657-0.364-1.168v-6.871h-0.714
				c-0.389,0-0.683-0.084-0.893-0.262c-0.209-0.171-0.315-0.399-0.315-0.678C412.931,765.757,413.366,765.45,414.235,765.45"/>
			<path style="fill:#4B4B4B;" d="M422.724,772.024v2.168c0,0.523-0.133,0.919-0.374,1.18c-0.247,0.266-0.559,0.395-0.938,0.395
				c-0.382,0-0.688-0.131-0.927-0.4c-0.236-0.264-0.36-0.656-0.36-1.174v-7.223c0-1.166,0.42-1.749,1.261-1.749
				c0.434,0,0.743,0.135,0.934,0.408c0.19,0.273,0.295,0.674,0.317,1.208c0.308-0.534,0.624-0.935,0.948-1.208
				c0.332-0.273,0.763-0.408,1.31-0.408c0.549,0,1.072,0.135,1.585,0.408c0.516,0.273,0.771,0.637,0.771,1.085
				c0,0.315-0.11,0.58-0.326,0.781c-0.22,0.209-0.454,0.312-0.706,0.312c-0.1,0-0.331-0.063-0.692-0.18
				c-0.365-0.113-0.688-0.173-0.963-0.173c-0.38,0-0.692,0.103-0.932,0.298c-0.242,0.205-0.431,0.497-0.564,0.887
				c-0.129,0.395-0.219,0.865-0.272,1.404C422.747,770.584,422.724,771.246,422.724,772.024"/>
			<path style="fill:#4B4B4B;" d="M434.645,771.131h-5.074c0.009,0.588,0.124,1.11,0.354,1.559c0.235,0.446,0.54,0.786,0.925,1.017
				c0.385,0.227,0.804,0.34,1.268,0.34c0.311,0,0.593-0.033,0.85-0.111c0.254-0.069,0.505-0.186,0.745-0.341
				c0.242-0.152,0.46-0.318,0.664-0.5c0.202-0.175,0.467-0.416,0.79-0.719c0.135-0.113,0.324-0.174,0.568-0.174
				c0.269,0,0.481,0.074,0.649,0.222c0.166,0.147,0.243,0.351,0.243,0.617c0,0.235-0.089,0.508-0.268,0.819
				c-0.188,0.317-0.463,0.616-0.836,0.906c-0.374,0.285-0.839,0.527-1.397,0.714c-0.56,0.19-1.206,0.286-1.932,0.286
				c-1.671,0-2.964-0.473-3.887-1.422c-0.924-0.952-1.392-2.242-1.392-3.868c0-0.767,0.117-1.478,0.348-2.135
				c0.225-0.658,0.558-1.216,0.999-1.688c0.436-0.471,0.97-0.828,1.612-1.078c0.638-0.249,1.347-0.374,2.128-0.374
				c1.011,0,1.881,0.214,2.606,0.646c0.724,0.423,1.273,0.977,1.629,1.654c0.361,0.681,0.542,1.368,0.542,2.074
				c0,0.648-0.189,1.07-0.562,1.266C435.847,771.035,435.323,771.131,434.645,771.131 M429.571,769.657h4.701
				c-0.063-0.885-0.298-1.55-0.714-1.986c-0.418-0.442-0.959-0.66-1.641-0.66c-0.646,0-1.177,0.22-1.592,0.669
				C429.912,768.125,429.658,768.784,429.571,769.657"/>
			<path style="fill:#4B4B4B;" d="M445.432,771.131h-5.073c0.006,0.588,0.125,1.11,0.355,1.559c0.231,0.446,0.539,0.786,0.921,1.017
				c0.383,0.227,0.806,0.34,1.271,0.34c0.308,0,0.593-0.033,0.845-0.111c0.259-0.069,0.506-0.186,0.75-0.341
				c0.242-0.152,0.46-0.318,0.664-0.5c0.199-0.175,0.464-0.416,0.788-0.719c0.135-0.113,0.326-0.174,0.568-0.174
				c0.268,0,0.483,0.074,0.65,0.222c0.165,0.147,0.24,0.351,0.24,0.617c0,0.235-0.087,0.508-0.273,0.819
				c-0.177,0.317-0.455,0.616-0.83,0.906c-0.37,0.285-0.84,0.527-1.396,0.714c-0.558,0.19-1.208,0.286-1.935,0.286
				c-1.667,0-2.959-0.473-3.887-1.422c-0.924-0.952-1.389-2.242-1.389-3.868c0-0.767,0.116-1.478,0.348-2.135
				c0.227-0.658,0.559-1.216,0.996-1.688c0.436-0.471,0.973-0.828,1.614-1.078c0.638-0.249,1.351-0.374,2.129-0.374
				c1.009,0,1.878,0.214,2.613,0.646c0.72,0.423,1.266,0.977,1.621,1.654c0.359,0.681,0.545,1.368,0.545,2.074
				c0,0.648-0.191,1.07-0.561,1.266C446.632,771.035,446.108,771.131,445.432,771.131 M440.359,769.657h4.701
				c-0.063-0.885-0.304-1.55-0.715-1.986c-0.421-0.442-0.962-0.66-1.643-0.66c-0.646,0-1.176,0.22-1.593,0.669
				C440.697,768.125,440.443,768.784,440.359,769.657"/>
			<path style="fill:#4B4B4B;" d="M451.112,766.679v0.311c0.486-0.601,0.994-1.042,1.524-1.324c0.519-0.284,1.118-0.427,1.782-0.427
				c0.795,0,1.535,0.208,2.207,0.617c0.671,0.414,1.198,1.016,1.589,1.807c0.39,0.795,0.586,1.729,0.586,2.813
				c0,0.796-0.112,1.531-0.336,2.201c-0.224,0.668-0.537,1.227-0.929,1.68c-0.394,0.45-0.855,0.802-1.39,1.046
				c-0.542,0.241-1.111,0.363-1.728,0.363c-0.738,0-1.364-0.148-1.865-0.447c-0.503-0.292-0.982-0.733-1.441-1.306v3.893
				c0,1.136-0.416,1.71-1.244,1.71c-0.49,0-0.809-0.146-0.972-0.44c-0.151-0.299-0.233-0.724-0.233-1.291v-11.193
				c0-0.495,0.106-0.859,0.32-1.107c0.215-0.239,0.512-0.364,0.885-0.364c0.369,0,0.666,0.125,0.895,0.374
				C450.998,765.848,451.112,766.205,451.112,766.679 M456.196,770.447c0-0.684-0.107-1.273-0.315-1.763
				c-0.209-0.492-0.499-0.867-0.866-1.128c-0.367-0.263-0.782-0.396-1.232-0.396c-0.714,0-1.318,0.284-1.809,0.844
				c-0.492,0.566-0.739,1.396-0.739,2.493c0,1.026,0.244,1.833,0.735,2.406c0.487,0.573,1.086,0.858,1.813,0.858
				c0.429,0,0.83-0.126,1.197-0.372c0.371-0.253,0.665-0.627,0.884-1.127C456.084,771.76,456.196,771.155,456.196,770.447"/>
			<path style="fill:#4B4B4B;" d="M461.412,764.013c-0.362,0-0.669-0.114-0.923-0.335c-0.26-0.223-0.388-0.532-0.388-0.937
				c0-0.368,0.131-0.67,0.396-0.91c0.262-0.234,0.566-0.356,0.914-0.356c0.34,0,0.636,0.107,0.894,0.319
				c0.26,0.219,0.391,0.534,0.391,0.946c0,0.399-0.127,0.711-0.378,0.936C462.064,763.899,461.763,764.013,461.412,764.013
				 M462.696,766.692v7.502c0,0.516-0.124,0.908-0.37,1.172c-0.25,0.27-0.561,0.4-0.941,0.4c-0.381,0-0.685-0.134-0.928-0.406
				c-0.233-0.276-0.355-0.665-0.355-1.166v-7.428c0-0.51,0.122-0.895,0.355-1.154c0.243-0.265,0.547-0.392,0.928-0.392
				c0.381,0,0.691,0.127,0.941,0.392C462.572,765.872,462.696,766.234,462.696,766.692"/>
			<path style="fill:#4B4B4B;" d="M471.055,774.583l-2.284-3.766l-1.408,1.328v2.065c0,0.499-0.133,0.882-0.396,1.149
				c-0.257,0.272-0.566,0.406-0.906,0.406c-0.398,0-0.715-0.131-0.94-0.4c-0.227-0.264-0.344-0.656-0.344-1.174v-11.063
				c0-0.573,0.114-1.011,0.331-1.313c0.223-0.305,0.545-0.452,0.953-0.452c0.4,0,0.713,0.137,0.949,0.411
				c0.234,0.271,0.353,0.674,0.353,1.202v6.293l2.916-3.063c0.362-0.376,0.633-0.641,0.827-0.778c0.19-0.139,0.419-0.208,0.69-0.208
				c0.326,0,0.594,0.104,0.815,0.309c0.211,0.206,0.32,0.466,0.32,0.773c0,0.379-0.353,0.889-1.055,1.521l-1.377,1.263l2.659,4.183
				c0.193,0.313,0.339,0.544,0.424,0.706c0.084,0.159,0.13,0.319,0.13,0.462c0,0.413-0.114,0.734-0.341,0.976
				c-0.225,0.236-0.524,0.354-0.886,0.354c-0.316,0-0.564-0.081-0.733-0.256C471.582,775.337,471.345,775.027,471.055,774.583"/>
			<path style="fill:#4B4B4B;" d="M476.691,775.766c-0.392,0-0.727-0.126-1.014-0.381c-0.284-0.249-0.429-0.606-0.429-1.065
				c0-0.386,0.138-0.719,0.41-0.995c0.274-0.279,0.607-0.419,1.008-0.419c0.397,0,0.735,0.14,1.022,0.412
				c0.279,0.275,0.422,0.612,0.422,1.002c0,0.452-0.143,0.808-0.422,1.06C477.402,775.64,477.07,775.766,476.691,775.766"/>
			<path style="fill:#4B4B4B;" d="M489.589,772.556c0,0.32-0.097,0.668-0.291,1.034c-0.191,0.37-0.488,0.718-0.886,1.05
				c-0.395,0.332-0.892,0.602-1.495,0.804c-0.601,0.202-1.28,0.307-2.03,0.307c-1.607,0-2.858-0.47-3.758-1.401
				c-0.896-0.936-1.346-2.189-1.346-3.76c0-1.067,0.204-2.006,0.619-2.824c0.407-0.815,1.004-1.447,1.781-1.894
				c0.779-0.448,1.716-0.67,2.794-0.67c0.674,0,1.288,0.098,1.853,0.295c0.561,0.195,1.032,0.451,1.425,0.759
				c0.387,0.315,0.685,0.644,0.89,0.992c0.207,0.352,0.308,0.681,0.308,0.987c0,0.308-0.113,0.571-0.343,0.787
				c-0.235,0.215-0.516,0.324-0.839,0.324c-0.219,0-0.397-0.057-0.541-0.166c-0.144-0.112-0.305-0.29-0.479-0.542
				c-0.317-0.478-0.646-0.842-0.996-1.079c-0.343-0.243-0.78-0.362-1.314-0.362c-0.762,0-1.384,0.298-1.853,0.898
				c-0.468,0.596-0.703,1.42-0.703,2.454c0,0.488,0.063,0.939,0.183,1.348c0.117,0.407,0.291,0.756,0.521,1.044
				c0.23,0.287,0.504,0.505,0.826,0.654c0.324,0.153,0.681,0.226,1.064,0.226c0.522,0,0.967-0.12,1.337-0.36
				c0.376-0.241,0.702-0.607,0.986-1.102c0.158-0.291,0.327-0.518,0.509-0.684c0.183-0.163,0.409-0.249,0.676-0.249
				c0.316,0,0.58,0.123,0.786,0.362C489.483,772.027,489.589,772.286,489.589,772.556"/>
			<path style="fill:#4B4B4B;" d="M500.78,770.496c0,0.769-0.122,1.484-0.355,2.139c-0.247,0.652-0.592,1.213-1.05,1.679
				c-0.455,0.469-1.002,0.828-1.632,1.08c-0.64,0.247-1.35,0.375-2.139,0.375c-0.785,0-1.493-0.128-2.121-0.383
				c-0.623-0.249-1.171-0.614-1.626-1.082c-0.461-0.477-0.809-1.034-1.052-1.677c-0.23-0.644-0.351-1.355-0.351-2.131
				c0-0.786,0.124-1.506,0.358-2.158c0.242-0.654,0.589-1.212,1.039-1.673c0.451-0.462,0.993-0.817,1.631-1.07
				c0.643-0.249,1.35-0.374,2.121-0.374c0.784,0,1.498,0.125,2.139,0.382c0.638,0.251,1.183,0.614,1.643,1.079
				c0.458,0.475,0.803,1.029,1.04,1.672C500.66,769.004,500.78,769.713,500.78,770.496 M498.176,770.496
				c0-1.059-0.234-1.881-0.698-2.469c-0.463-0.596-1.09-0.888-1.874-0.888c-0.508,0-0.955,0.132-1.343,0.394
				c-0.387,0.262-0.681,0.649-0.89,1.164c-0.209,0.514-0.316,1.113-0.316,1.799c0,0.679,0.103,1.267,0.31,1.773
				c0.208,0.511,0.502,0.897,0.886,1.166c0.386,0.267,0.835,0.404,1.353,0.404c0.784,0,1.411-0.296,1.874-0.892
				C497.942,772.357,498.176,771.537,498.176,770.496"/>
			<path style="fill:#4B4B4B;" d="M510.671,770.686v3.446c0,0.547-0.12,0.951-0.369,1.228c-0.25,0.272-0.571,0.408-0.977,0.408
				c-0.393,0-0.714-0.136-0.951-0.408c-0.247-0.276-0.372-0.681-0.372-1.228v-4.131c0-0.653-0.021-1.162-0.063-1.524
				c-0.046-0.354-0.168-0.655-0.362-0.883c-0.196-0.235-0.509-0.352-0.931-0.352c-0.851,0-1.407,0.29-1.677,0.881
				c-0.268,0.576-0.406,1.413-0.406,2.507v3.502c0,0.538-0.122,0.946-0.361,1.224c-0.249,0.273-0.567,0.412-0.965,0.412
				c-0.396,0-0.717-0.139-0.967-0.412c-0.252-0.277-0.376-0.686-0.376-1.224v-7.419c0-0.489,0.111-0.86,0.335-1.111
				c0.229-0.257,0.526-0.382,0.89-0.382c0.356,0,0.651,0.123,0.892,0.355c0.236,0.238,0.354,0.566,0.354,0.984v0.245
				c0.453-0.535,0.935-0.932,1.444-1.181c0.517-0.26,1.082-0.386,1.713-0.386c0.651,0,1.211,0.131,1.678,0.39
				c0.47,0.261,0.853,0.655,1.16,1.177c0.439-0.528,0.909-0.923,1.41-1.181c0.5-0.257,1.053-0.386,1.662-0.386
				c0.706,0,1.321,0.143,1.834,0.419c0.51,0.278,0.893,0.68,1.148,1.195c0.221,0.473,0.33,1.21,0.33,2.217v5.063
				c0,0.547-0.122,0.951-0.367,1.228c-0.246,0.272-0.575,0.408-0.979,0.408c-0.395,0-0.714-0.139-0.965-0.412
				c-0.25-0.277-0.376-0.686-0.376-1.224v-4.361c0-0.559-0.023-1.003-0.069-1.338c-0.047-0.337-0.177-0.62-0.383-0.847
				c-0.212-0.228-0.53-0.344-0.953-0.344c-0.342,0-0.666,0.107-0.974,0.308c-0.307,0.198-0.547,0.477-0.721,0.813
				C510.77,768.801,510.671,769.576,510.671,770.686"/>
		</g>
		<g>
			<path style="fill:#4B4B4B;" d="M389.967,769.868c-0.002-0.005-0.002-0.01-0.002-0.018
				C389.965,769.858,389.965,769.863,389.967,769.868z"/>
			<path style="fill:#4B4B4B;" d="M390.098,770.697c0.002,0,0.002,0,0.003,0c-0.05-0.236-0.088-0.471-0.119-0.702
				C390.012,770.228,390.051,770.463,390.098,770.697z"/>
			<path style="fill:#4B4B4B;" d="M390.956,773.103c-0.006-0.01-0.011-0.021-0.017-0.033
				C390.945,773.082,390.95,773.093,390.956,773.103z"/>
			<path style="fill:#4B4B4B;" d="M390.874,772.943c-0.022-0.044-0.044-0.09-0.065-0.134
				C390.83,772.856,390.851,772.899,390.874,772.943z"/>
			<path style="fill:#4B4B4B;" d="M390.339,771.624c0.127,0.4,0.28,0.788,0.457,1.158c-0.18-0.378-0.33-0.767-0.454-1.158
				C390.341,771.624,390.34,771.624,390.339,771.624z"/>
			<path style="fill:#4B4B4B;" d="M400.004,759.931c0.501,0,0.871,0.04,1.295,0.111l0.12-0.763c0,0-1.171-0.36-2.71-0.234
				l-0.121-0.415c0.479-0.101,0.838-0.526,0.838-1.034c0-0.582-0.474-1.054-1.057-1.054c-0.583,0-1.056,0.472-1.056,1.054
				c0,0.508,0.358,0.934,0.836,1.034l0.134,0.463c-1.634,0.225-2.935,0.862-2.935,0.862l0.23,0.705
				c0.989-0.329,1.846-0.529,2.624-0.613C398.964,759.966,399.537,759.931,400.004,759.931z"/>
			<path style="fill:#4B4B4B;" d="M390.936,763.79l0.006-0.008c0.038-0.05,0.076-0.097,0.113-0.143l-0.313-0.226l-0.488-0.356
				c-0.027,0.038-0.795,0.744-1.401,2.048c-0.025-0.041-0.056-0.081-0.09-0.119c-0.182-0.198-0.436-0.3-0.758-0.294
				c-0.004,0-0.009,0-0.015,0c-0.2,0-0.337-0.066-0.427-0.147c0.089-0.113,0.143-0.256,0.143-0.413c0-0.368-0.3-0.669-0.669-0.669
				c-0.369,0-0.668,0.301-0.668,0.669c0,0.37,0.3,0.669,0.668,0.669c0.058,0,0.113-0.01,0.167-0.021
				c0.165,0.183,0.425,0.342,0.808,0.334c0.197-0.002,0.341,0.049,0.438,0.155c0.111,0.121,0.148,0.296,0.16,0.428
				c-0.001,0.002-0.001,0.005-0.003,0.005c-0.436,1.189-0.311,2.67-0.311,2.67l1.057,0.042c0.021-0.539,0.099-1.482,0.372-2.23
				C390.25,764.734,390.91,763.828,390.936,763.79z"/>
			<path style="fill:#4B4B4B;" d="M409.204,760.815c-0.368,0-0.669,0.299-0.669,0.669c0,0.058,0.009,0.112,0.023,0.165
				c-0.184,0.166-0.343,0.428-0.337,0.81c0.003,0.197-0.048,0.34-0.154,0.437c-0.085,0.075-0.191,0.115-0.296,0.141
				c-0.787-1.103-1.756-1.775-1.756-1.775l-0.759,0.814c0.573,0.521,1.159,1.175,1.729,1.99c0.394,0.563,0.799,1.29,1.136,2.015
				l1.024-0.486c0,0-0.468-1.155-1.126-2.191c0.114-0.04,0.229-0.103,0.331-0.192c0.2-0.181,0.299-0.436,0.293-0.758
				c-0.002-0.208,0.066-0.349,0.148-0.441c0.114,0.087,0.257,0.143,0.412,0.143c0.371,0,0.67-0.3,0.67-0.669
				C409.873,761.114,409.575,760.815,409.204,760.815z"/>
			<path style="fill:#4B4B4B;" d="M406.546,770.017c-1.409,0.687-3.728,1.594-6.781,2.02c-1.198,0.166-2.359,0.228-3.428,0.228
				c-1.391,0-2.62-0.104-3.563-0.223c-1.076-0.136-1.918-0.302-2.432-0.418c0.124,0.392,0.273,0.78,0.454,1.158
				c0.003,0.01,0.008,0.021,0.013,0.027c0.022,0.044,0.043,0.09,0.065,0.134c0.022,0.044,0.043,0.087,0.065,0.127
				c0.006,0.012,0.011,0.023,0.017,0.033c0.303,0.57,0.667,1.095,1.081,1.549c1.44,1.575,2.907,1.824,2.921,1.826l0.023,0.003
				l0.021,0.008c0.013,0.005,1.314,0.425,3.292,0.425c1.945,0,3.854-0.393,5.674-1.167c1.348-0.689,2.622-1.736,3.254-2.67
				c0.488-0.723,0.841-1.493,1.05-2.294c0.111-0.426,0.199-1.107,0.147-1.825C408.022,769.224,407.395,769.604,406.546,770.017z"/>
			<path style="fill:#4B4B4B;" d="M391.389,764.124c-0.041,0.06-0.652,0.925-1.135,2.253c-0.362,0.995-0.346,2.443-0.346,2.46v0.003
				c0,0.34,0.019,0.677,0.057,1.011c0,0.008,0,0.013,0.002,0.018c0.004,0.043,0.011,0.084,0.015,0.127
				c0.03,0.231,0.069,0.466,0.119,0.702c0.7,0.178,4.878,1.152,9.548,0.502c2.927-0.407,5.149-1.273,6.499-1.927
				c1.121-0.544,1.842-1.036,2.12-1.238c-0.277-1.028-1.042-2.641-1.743-3.646c-2.005-2.865-4.167-3.601-5.277-3.783
				c-0.424-0.069-0.763-0.109-1.243-0.109c-0.447,0-1.002,0.036-1.743,0.114c-0.743,0.077-1.572,0.273-2.532,0.596
				c-1.348,0.451-2.567,1.159-3.527,2.048l-0.033,0.03C392.027,763.414,391.73,763.689,391.389,764.124z M403.659,763.457
				c0.961,0,1.743,0.781,1.743,1.743c0,0.962-0.782,1.744-1.743,1.744c-0.962,0-1.742-0.782-1.742-1.744
				C401.916,764.238,402.697,763.457,403.659,763.457z M395.417,763.387c1.557,0,2.817,1.262,2.817,2.817
				c0,1.556-1.26,2.815-2.817,2.815c-1.555,0-2.816-1.259-2.816-2.815C392.601,764.649,393.862,763.387,395.417,763.387z"/>
		</g>
	</g>
</g>
<g id="objects">
	<g>
		<path style="fill:#1D1D1B;" d="M495.5,207.75c0,0-18.5,24-28.5,38s-17.75,23.25-20.25,24s-10.5,3-13.25,2s-6.5-1.5-5.25,0.5
			s2,3.5,4.5,3.5s-1.25,3.25-4.25,4.5s-17,6.5-21.5,7.25s-10.75,0.75-10,3.25s5.25,2.25,9,1.75s5.75-0.5,5.75-0.5s-9.5,3.5-13,4.25
			s-6.25-0.5-5.75,1.25s2,3.25,2,3.25s1.25,2.75,4.75,2.25s7.5-0.75,7.5-0.75s-0.75,4,6.25,2s15.5-6.25,17.75-6S445,292.75,451,289
			s6.75-7,9.75-10.5s23.5-17.75,30.5-24s26.75-18.75,35.25-29s12.25-16,15-25s3.25-22,0-25S495.5,207.75,495.5,207.75z"/>
		<linearGradient id="SVGID_1_" gradientUnits="userSpaceOnUse" x1="393.1973" y1="132.3648" x2="-14.8027" y2="402.3648">
			<stop  offset="0" style="stop-color:#EB1B90"/>
			<stop  offset="0.2325" style="stop-color:#F0576B"/>
			<stop  offset="0.4993" style="stop-color:#F59644"/>
			<stop  offset="0.7257" style="stop-color:#F9C328"/>
			<stop  offset="0.8995" style="stop-color:#FBE016"/>
			<stop  offset="1" style="stop-color:#FCEA10"/>
		</linearGradient>
		<path style="fill:url(#SVGID_1_);" d="M391,158.333c-7.167,11.147-21.832,16.548-33.352,21.61
			c-16.814,7.388-33.359,12.965-51.3,16.877c-38.524,8.4-86.378,10.437-118.426,36.245c-12.57,10.122-33.165,28.976-36.876,45.086
			c14.657-11.377,26.917-24.811,44.865-31.297c15.904-5.747,32.737-7.775,49.397-9.244C300.767,232.719,349.35,204.362,391,158.333z
			"/>
		
			<linearGradient id="SVGID_00000098182590933738295740000000765407904757762704_" gradientUnits="userSpaceOnUse" x1="24.7217" y1="251.3447" x2="428.3333" y2="251.3447">
			<stop  offset="0" style="stop-color:#FFC202;stop-opacity:0.7"/>
			<stop  offset="0.1964" style="stop-color:#FEBE03;stop-opacity:0.7589"/>
			<stop  offset="0.3805" style="stop-color:#FCB305;stop-opacity:0.8141"/>
			<stop  offset="0.5596" style="stop-color:#F9A009;stop-opacity:0.8679"/>
			<stop  offset="0.7356" style="stop-color:#F4850F;stop-opacity:0.9207"/>
			<stop  offset="0.9079" style="stop-color:#ED6316;stop-opacity:0.9724"/>
			<stop  offset="1" style="stop-color:#E94E1B"/>
		</linearGradient>
		<path style="fill:url(#SVGID_00000098182590933738295740000000765407904757762704_);" d="M428.333,110.333
			c-7.112,0.987-13.565,6.217-19.804,9.802c-17.637,10.133-34.644,21.304-52.23,31.566c-35.345,20.626-73.157,37.217-114.859,35.323
			c-28.314-1.286-53.878-15.715-81.285-20.039c-40.772-6.433-87.777,20.184-110.814,52.426
			c-19.666,27.525-26.38,62.567-24.238,96.001c1.092,17.055,6.829,32.629,14.833,47.432c5.619,10.392,11.869,18.676,20.683,29.513
			c-13.888-17.74-22.517-35.559-24.968-58.997c-3.391-32.429,2.586-69.131,22.338-96.076c18.492-25.226,47.553-44.041,78.644-48.995
			c31.891-5.082,62.201,13.052,92.859,18.09C303.794,218.588,379.876,178.069,428.333,110.333z"/>
		
			<linearGradient id="SVGID_00000129186663015391075810000004164186256141478818_" gradientUnits="userSpaceOnUse" x1="470.6087" y1="143.7799" x2="548.5836" y2="143.7799">
			<stop  offset="0" style="stop-color:#FFC202;stop-opacity:0.7"/>
			<stop  offset="0.1964" style="stop-color:#FEBE03;stop-opacity:0.7589"/>
			<stop  offset="0.3805" style="stop-color:#FCB305;stop-opacity:0.8141"/>
			<stop  offset="0.5596" style="stop-color:#F9A009;stop-opacity:0.8679"/>
			<stop  offset="0.7356" style="stop-color:#F4850F;stop-opacity:0.9207"/>
			<stop  offset="0.9079" style="stop-color:#ED6316;stop-opacity:0.9724"/>
			<stop  offset="1" style="stop-color:#E94E1B"/>
		</linearGradient>
		<path style="fill:url(#SVGID_00000129186663015391075810000004164186256141478818_);" d="M544.979,104.079
			c-5.573,14.218-11.755,24.368-25.256,32.651c-13.786,8.458-29.753,13.894-39.141,27.943c-6.905,10.333-5.604,20.052-9.048,30.285
			c-3.739-23.888,3.924-42.073,21.832-57.386c13.566-11.599,30.175-25.333,29.358-44.93c11.239-0.578,18.806,5.214,25.86,13.474
			C547.878,106.326,547.158,106.368,544.979,104.079z"/>
		
			<linearGradient id="SVGID_00000090988434867191404370000004297865484102368420_" gradientUnits="userSpaceOnUse" x1="287.3843" y1="103.5154" x2="-75.5975" y2="141.0135">
			<stop  offset="0" style="stop-color:#EB1B90"/>
			<stop  offset="0.2325" style="stop-color:#F0576B"/>
			<stop  offset="0.4993" style="stop-color:#F59644"/>
			<stop  offset="0.7257" style="stop-color:#F9C328"/>
			<stop  offset="0.8995" style="stop-color:#FBE016"/>
			<stop  offset="1" style="stop-color:#FCEA10"/>
		</linearGradient>
		<path style="fill:url(#SVGID_00000090988434867191404370000004297865484102368420_);" d="M489,75
			c-9.418-5.542-29.462,4.481-38.386,7.725c-30.966,11.256-58.216,29.649-87.651,44.127C331.473,142.34,296.06,152.72,261,157
			c-29.566,3.61-58.566-4.327-81.994-21.652c-15.761-11.656-28.079-31.551-31.702-50.818c-2.95-15.684,0.152-30.46-0.275-46.021
			c-16.535,37.373-9.933,86.782,21.438,114.491c19.163,16.926,46.01,25.189,70.467,30.667c17.836,3.995,45.129-0.084,63.4-3.333
			c25.785-4.586,41.062-11.89,62.705-25.673c23.59-15.023,42.242-33.446,62.799-52.043C441.668,90.107,465.334,74.627,489,75z"/>
		
			<linearGradient id="SVGID_00000147219627841301832430000005101839816903181441_" gradientUnits="userSpaceOnUse" x1="531.2006" y1="278.8825" x2="157.1723" y2="535.9639">
			<stop  offset="0" style="stop-color:#EB1B90"/>
			<stop  offset="0.2325" style="stop-color:#F0576B"/>
			<stop  offset="0.4993" style="stop-color:#F59644"/>
			<stop  offset="0.7257" style="stop-color:#F9C328"/>
			<stop  offset="0.8995" style="stop-color:#FBE016"/>
			<stop  offset="1" style="stop-color:#FCEA10"/>
		</linearGradient>
		<path style="fill:url(#SVGID_00000147219627841301832430000005101839816903181441_);" d="M445,213
			c-13.69,2.502-24.03,25.116-29.297,36.148c-8.887,18.616-14.272,36.889-15.395,57.575c-1.168,21.524,3.68,42.164,5.95,63.414
			c3.391,31.742-1.549,64.924-13.271,94.59c-7.336,18.566-19.477,35.031-33.694,48.928c-9.98,9.756-19.764,17.273-32.788,23.244
			c41.162-8.566,56.334-34.299,71.242-55.233c18.298-25.694,29.788-55.107,31.61-86.698C432.788,335.464,412.02,268.833,445,213z"/>
		
			<linearGradient id="SVGID_00000154410398390970818490000012860159772843688605_" gradientUnits="userSpaceOnUse" x1="240.9185" y1="333.7196" x2="393" y2="333.7196">
			<stop  offset="0" style="stop-color:#FFC202;stop-opacity:0.7"/>
			<stop  offset="0.1964" style="stop-color:#FEBE03;stop-opacity:0.7589"/>
			<stop  offset="0.3805" style="stop-color:#FCB305;stop-opacity:0.8141"/>
			<stop  offset="0.5596" style="stop-color:#F9A009;stop-opacity:0.8679"/>
			<stop  offset="0.7356" style="stop-color:#F4850F;stop-opacity:0.9207"/>
			<stop  offset="0.9079" style="stop-color:#ED6316;stop-opacity:0.9724"/>
			<stop  offset="1" style="stop-color:#E94E1B"/>
		</linearGradient>
		<path style="fill:url(#SVGID_00000154410398390970818490000012860159772843688605_);" d="M393,198.333
			c-10.511,3.393-23.207,15.791-31.999,22.943c-16.969,13.805-36.143,26.71-50.702,43.205c-30.125,34.132-56.59,79.703-65.28,124.93
			c-4.802,24.991-6.345,55.005,0.682,79.694c-0.974-33.744,10.917-66.599,22.292-98.888c17.94-50.919,52.699-87.816,90.474-125.413
			C372.903,230.438,389.809,222.551,393,198.333z"/>
		
			<linearGradient id="SVGID_00000108274223459154364920000012144622258727134870_" gradientUnits="userSpaceOnUse" x1="441.0732" y1="135.5443" x2="222.6095" y2="504.6422">
			<stop  offset="0" style="stop-color:#FCEA10;stop-opacity:0.7"/>
			<stop  offset="0.1584" style="stop-color:#FCE611;stop-opacity:0.7475"/>
			<stop  offset="0.3067" style="stop-color:#FADB12;stop-opacity:0.792"/>
			<stop  offset="0.4512" style="stop-color:#F8C815;stop-opacity:0.8354"/>
			<stop  offset="0.5932" style="stop-color:#F5AD19;stop-opacity:0.8779"/>
			<stop  offset="0.7335" style="stop-color:#F18B1E;stop-opacity:0.92"/>
			<stop  offset="0.8704" style="stop-color:#EC6223;stop-opacity:0.9611"/>
			<stop  offset="1" style="stop-color:#E6332A"/>
		</linearGradient>
		<path style="opacity:0.81;fill:url(#SVGID_00000108274223459154364920000012144622258727134870_);" d="M421.667,164.333
			c-3.778,3.992-6.12,9.317-9.586,13.648c-6.577,8.22-15.117,14.959-22.578,22.386c-16.05,15.978-32.217,33.28-43.753,53.022
			c-13.505,23.112-27.415,46.565-36.359,71.937c-8.887,25.208-14.283,51.575-19.724,77.689
			c-4.299,20.632-11.576,46.981-26.407,62.744c12.434-8.365,22.292-24.826,30.071-37.424c9.221-14.933,13.967-32.661,19.002-49.471
			c7.856-26.227,12.527-53.171,22.502-78.771c5.307-13.622,11.451-27.695,18.43-40.53c5.639-10.372,11.182-21.342,18.498-30.637
			c9.931-12.617,22.541-22.747,31.904-35.926C410.136,183.893,418.874,176.083,421.667,164.333z"/>
		
			<linearGradient id="SVGID_00000116941448833241201010000003927161698628446638_" gradientUnits="userSpaceOnUse" x1="463.1855" y1="174.6024" x2="-13.0564" y2="501.9384">
			<stop  offset="0" style="stop-color:#EB1B90"/>
			<stop  offset="0.2325" style="stop-color:#F0576B"/>
			<stop  offset="0.4993" style="stop-color:#F59644"/>
			<stop  offset="0.7257" style="stop-color:#F9C328"/>
			<stop  offset="0.8995" style="stop-color:#FBE016"/>
			<stop  offset="1" style="stop-color:#FCEA10"/>
		</linearGradient>
		<path style="fill:url(#SVGID_00000116941448833241201010000003927161698628446638_);" d="M363.667,201
			c-10.838,21.163-37.668,38.916-57.971,50.668c-18.654,10.798-37.831,19.779-55.857,31.885
			c-23.724,15.933-46.073,33.403-63.854,55.945c-11.968,15.172-21.29,31.707-26.834,50.303c-2.813,9.436-5.301,19.71-4.854,29.6
			c0.27,5.97,2.399,11.591,2.701,17.452c0.058-48.723,32.52-96.782,72.443-123.187c44.763-29.606,99.145-38.805,139.622-76.066
			c10.082-9.281,16.926-23.548,22.468-35.818c5.386-11.922,12.023-24.641,12.095-38.034c-6.092,3.982-10.917,10.835-16.122,15.839
			C376.663,190.01,364.07,198.132,363.667,201z"/>
		
			<linearGradient id="SVGID_00000147924694003296042740000014600917792985007255_" gradientUnits="userSpaceOnUse" x1="512.657" y1="86.1122" x2="448.3512" y2="345.0974">
			<stop  offset="0" style="stop-color:#FCEA10;stop-opacity:0.7"/>
			<stop  offset="0.1584" style="stop-color:#FCE611;stop-opacity:0.7475"/>
			<stop  offset="0.3067" style="stop-color:#FADB12;stop-opacity:0.792"/>
			<stop  offset="0.4512" style="stop-color:#F8C815;stop-opacity:0.8354"/>
			<stop  offset="0.5932" style="stop-color:#F5AD19;stop-opacity:0.8779"/>
			<stop  offset="0.7335" style="stop-color:#F18B1E;stop-opacity:0.92"/>
			<stop  offset="0.8704" style="stop-color:#EC6223;stop-opacity:0.9611"/>
			<stop  offset="1" style="stop-color:#E6332A"/>
		</linearGradient>
		<path style="opacity:0.81;fill:url(#SVGID_00000147924694003296042740000014600917792985007255_);" d="M515,100.333
			c-13.587-1.251-28.801,25.88-34.682,35.333c-9.788,15.733-17.945,33.569-19.26,52.333c-1.187,16.939-0.983,32.543,3.023,49.049
			c3.99,16.441,7.63,33.797,8.585,50.753c0.557,9.889,1.076,19.412-2.317,28.849c-2.556,7.108-7.126,12.389-10.611,18.778
			c10.81-7.977,23.078-18.985,26.621-32.429c3.082-11.697,3.075-24.853,1.957-36.762c-1.565-16.677-4.587-33.39-4.649-50.264
			c-0.043-11.717-1.043-24.063,0.802-35.653c1.868-11.735,7.244-23.574,11.815-34.486c5.776-13.79,20.453-35.758,36.51-38.95
			C528.39,100.93,518.989,105.036,515,100.333z"/>
		
			<linearGradient id="SVGID_00000132086207227502778600000006769496835791027372_" gradientUnits="userSpaceOnUse" x1="631.6248" y1="24.0146" x2="334.6247" y2="198.0146">
			<stop  offset="0" style="stop-color:#EB1B90"/>
			<stop  offset="0.2325" style="stop-color:#F0576B"/>
			<stop  offset="0.4993" style="stop-color:#F59644"/>
			<stop  offset="0.7257" style="stop-color:#F9C328"/>
			<stop  offset="0.8995" style="stop-color:#FBE016"/>
			<stop  offset="1" style="stop-color:#FCEA10"/>
		</linearGradient>
		<path style="fill:url(#SVGID_00000132086207227502778600000006769496835791027372_);" d="M470.654,87.482
			c-3.653,2.523-5.699,7.509-8.822,11.004c-5.899,6.601-13.482,11.512-21.259,15.681c-28.687,15.381-58.812,27.852-89.866,37.715
			c-53.86,17.105-120.459,39.734-140.94,98.358c-5.176,14.815-5.866,30.13-5.399,45.682c0.297,9.904,4.759,16.835,7.247,25.88
			c0.613-10.698-2.061-20.898,0.672-31.556c3.112-12.137,9.725-23.989,17.7-33.533c21.521-25.755,49.024-46.144,80.374-58.129
			c32.397-12.385,67.026-20.51,98.032-36.031c20.841-10.433,47.428-22.184,60.874-42.444c12.46-18.774,21.925-35.546,40.144-49.272
			C495.263,73.388,476.479,77.392,470.654,87.482z"/>
		
			<linearGradient id="SVGID_00000039829371821103305330000001286360531058459788_" gradientUnits="userSpaceOnUse" x1="97.6496" y1="327.9587" x2="419" y2="327.9587">
			<stop  offset="0" style="stop-color:#FFC202;stop-opacity:0.7"/>
			<stop  offset="0.1964" style="stop-color:#FEBE03;stop-opacity:0.7589"/>
			<stop  offset="0.3805" style="stop-color:#FCB305;stop-opacity:0.8141"/>
			<stop  offset="0.5596" style="stop-color:#F9A009;stop-opacity:0.8679"/>
			<stop  offset="0.7356" style="stop-color:#F4850F;stop-opacity:0.9207"/>
			<stop  offset="0.9079" style="stop-color:#ED6316;stop-opacity:0.9724"/>
			<stop  offset="1" style="stop-color:#E94E1B"/>
		</linearGradient>
		<path style="fill:url(#SVGID_00000039829371821103305330000001286360531058459788_);" d="M419,141.667
			c-17.239,15.048-33.56,30.076-52.503,43.499c-25.347,17.961-52.697,37.621-81.517,49.513
			c-63.898,26.367-129.042,68.665-166.512,128.067c-14.237,22.571-20.446,50.285-20.807,76.753
			c-0.337,24.744,6.553,59.931,29.209,74.752c-2.009-6.868-8.305-13.624-11.92-20.037c-4.985-8.843-7.397-17.663-7.826-27.769
			c-0.784-18.481,2.687-38.668,9.045-56.048c11.688-31.946,29.858-59.642,55.285-82.414c29.951-26.823,71.836-40.362,106.807-59.099
			C333.439,239.322,396.737,203.971,419,141.667z"/>
		
			<linearGradient id="SVGID_00000021105596121963018110000003272087939123695504_" gradientUnits="userSpaceOnUse" x1="629.8754" y1="85.044" x2="307.8754" y2="128.044">
			<stop  offset="0" style="stop-color:#EB1B90"/>
			<stop  offset="0.2325" style="stop-color:#F0576B"/>
			<stop  offset="0.4993" style="stop-color:#F59644"/>
			<stop  offset="0.7257" style="stop-color:#F9C328"/>
			<stop  offset="0.8995" style="stop-color:#FBE016"/>
			<stop  offset="1" style="stop-color:#FCEA10"/>
		</linearGradient>
		<path style="fill:url(#SVGID_00000021105596121963018110000003272087939123695504_);" d="M484.364,73.05
			c-8.723,7.366-21.418,10.467-32.104,14.07c-19.529,6.584-40.889,10.562-61.544,9.74c-41.321-1.644-91.69-14.098-128.782,9.316
			c-13.975,8.822-26.838,22.466-34.176,37.32c-4.392,8.892-11.066,22.292-10.257,32.416c5.289-9.199,14.247-15.193,22.778-21.318
			c11.894-8.54,24.659-18.169,38.75-22.747c17.811-5.787,37.508-10.964,56.33-12.559c20.078-1.701,39.371,1.115,59.331-2.222
			c14.898-2.491,30.671-7.46,44.414-13.716c8.088-3.682,16.468-7.721,23.613-13.054C469.041,85.573,486.005,75.011,484.364,73.05z"
			/>
		
			<linearGradient id="SVGID_00000171695806787296421260000000990912036049642173_" gradientUnits="userSpaceOnUse" x1="456.2496" y1="46.5558" x2="436.6052" y2="118.343">
			<stop  offset="0" style="stop-color:#EB1B90"/>
			<stop  offset="0.2325" style="stop-color:#F0576B"/>
			<stop  offset="0.4993" style="stop-color:#F59644"/>
			<stop  offset="0.7257" style="stop-color:#F9C328"/>
			<stop  offset="0.8995" style="stop-color:#FBE016"/>
			<stop  offset="1" style="stop-color:#FCEA10"/>
		</linearGradient>
		<path style="fill:url(#SVGID_00000171695806787296421260000000990912036049642173_);" d="M493.745,57.896
			c-15.363,0-25.424,4.52-39.327,10.463c-14.304,6.115-40.824,17.938-55.669,8.929c13.186,9.735,38.517,12.564,54.137,10.221
			c9.313-1.397,20.887-4.159,28.98-9.047c6.153-3.717,9.766-9.18,17.399-9.704C496.832,66.141,496.684,62.767,493.745,57.896z"/>
		
			<linearGradient id="SVGID_00000147942620142066191530000005392597510630060676_" gradientUnits="userSpaceOnUse" x1="515.4545" y1="66.9078" x2="402.6991" y2="251.8972">
			<stop  offset="0" style="stop-color:#FCEA10;stop-opacity:0.7"/>
			<stop  offset="0.1584" style="stop-color:#FCE611;stop-opacity:0.7475"/>
			<stop  offset="0.3067" style="stop-color:#FADB12;stop-opacity:0.792"/>
			<stop  offset="0.4512" style="stop-color:#F8C815;stop-opacity:0.8354"/>
			<stop  offset="0.5932" style="stop-color:#F5AD19;stop-opacity:0.8779"/>
			<stop  offset="0.7335" style="stop-color:#F18B1E;stop-opacity:0.92"/>
			<stop  offset="0.8704" style="stop-color:#EC6223;stop-opacity:0.9611"/>
			<stop  offset="1" style="stop-color:#E6332A"/>
		</linearGradient>
		<path style="opacity:0.81;fill:url(#SVGID_00000147942620142066191530000005392597510630060676_);" d="M503.126,75.936
			c-8.774-0.271-20.398,9.097-26.702,14.395c-11.419,9.597-17.744,21.675-23.089,35.252c-11.329,28.778-4.648,59.964-16.617,88.236
			c-7.266,17.162-20.48,24.197-35.315,32.993c17.718,2.048,41.046-14.718,50.487-28.6c9.819-14.438,11.691-31.05,16.599-47.586
			c5.536-18.65,10.005-36.168,20.386-53.033c5.879-9.551,25.793-24.004,23.523-36.497C509.008,81.298,504.708,81.324,503.126,75.936
			z"/>
		
			<linearGradient id="SVGID_00000149339664381118947000000014688921348824609944_" gradientUnits="userSpaceOnUse" x1="456.0497" y1="138.1338" x2="352.9842" y2="287.8871">
			<stop  offset="0" style="stop-color:#FCEA10;stop-opacity:0.7"/>
			<stop  offset="0.1584" style="stop-color:#FCE611;stop-opacity:0.7475"/>
			<stop  offset="0.3067" style="stop-color:#FADB12;stop-opacity:0.792"/>
			<stop  offset="0.4512" style="stop-color:#F8C815;stop-opacity:0.8354"/>
			<stop  offset="0.5932" style="stop-color:#F5AD19;stop-opacity:0.8779"/>
			<stop  offset="0.7335" style="stop-color:#F18B1E;stop-opacity:0.92"/>
			<stop  offset="0.8704" style="stop-color:#EC6223;stop-opacity:0.9611"/>
			<stop  offset="1" style="stop-color:#E6332A"/>
		</linearGradient>
		<path style="opacity:0.81;fill:url(#SVGID_00000149339664381118947000000014688921348824609944_);" d="M457.665,144.489
			c-6.971,9.512-12.026,17.932-22.207,24.693c-13.693,9.093-28.096,16.138-40.536,27.424c-26.815,24.325-36.796,53.663-33.95,89.114
			c1.301-19.105,17.689-38.336,31.208-50.629c11.766-10.699,25.003-18.849,37.342-28.897c9.261-7.541,16.821-16.199,21.843-27.085
			C456.26,168.499,454.885,156.797,457.665,144.489z"/>
		
			<linearGradient id="SVGID_00000061451851610865056370000005427636501482976934_" gradientUnits="userSpaceOnUse" x1="536.5699" y1="93.7152" x2="476.6685" y2="213.5179">
			<stop  offset="0" style="stop-color:#FCEA10;stop-opacity:0.7"/>
			<stop  offset="0.1584" style="stop-color:#FCE611;stop-opacity:0.7475"/>
			<stop  offset="0.3067" style="stop-color:#FADB12;stop-opacity:0.792"/>
			<stop  offset="0.4512" style="stop-color:#F8C815;stop-opacity:0.8354"/>
			<stop  offset="0.5932" style="stop-color:#F5AD19;stop-opacity:0.8779"/>
			<stop  offset="0.7335" style="stop-color:#F18B1E;stop-opacity:0.92"/>
			<stop  offset="0.8704" style="stop-color:#EC6223;stop-opacity:0.9611"/>
			<stop  offset="1" style="stop-color:#E6332A"/>
		</linearGradient>
		<path style="opacity:0.81;fill:url(#SVGID_00000061451851610865056370000005427636501482976934_);" d="M526.939,87.482
			c-16.081,1.64-16.46,25.656-15.875,37.54c0.876,17.801,0.74,34.661-7.279,51.386c-5.761,12.016-14.628,21.325-27.153,26.387
			c21.91,3.349,38.134-20.512,43.832-38.104c5.521-17.046-1.37-58.717,20.057-66.511C540.549,92.457,530.859,86.976,526.939,87.482z
			"/>
		
			<linearGradient id="SVGID_00000028301653353745679710000010469284173701546629_" gradientUnits="userSpaceOnUse" x1="233.2312" y1="531.5547" x2="408.5307" y2="166.8613">
			<stop  offset="0" style="stop-color:#DCED00;stop-opacity:0.7"/>
			<stop  offset="0.1451" style="stop-color:#D8EC02;stop-opacity:0.7435"/>
			<stop  offset="0.2811" style="stop-color:#CDE709;stop-opacity:0.7843"/>
			<stop  offset="0.4136" style="stop-color:#BAE014;stop-opacity:0.8241"/>
			<stop  offset="0.5438" style="stop-color:#9FD623;stop-opacity:0.8631"/>
			<stop  offset="0.6725" style="stop-color:#7DCA37;stop-opacity:0.9018"/>
			<stop  offset="0.7999" style="stop-color:#53BA4F;stop-opacity:0.94"/>
			<stop  offset="0.924" style="stop-color:#22A86B;stop-opacity:0.9772"/>
			<stop  offset="1" style="stop-color:#009B7F"/>
		</linearGradient>
		<path style="fill:url(#SVGID_00000028301653353745679710000010469284173701546629_);" d="M371,244.333
			c-20,8.667-53.324,26.387-56.664,30.148c-12.688,14.29-22.875,31.868-27.521,50.353c-10.851,43.174,6.631,83.29,11.699,125.833
			c2.327,19.535,0.086,40.415-12.258,56.112c8.882-11.646,18.123-21.966,24.075-35.616c5.555-12.737,6.16-29.506,4.668-43.147
			c-2.268-20.739-8.531-41.025-11.672-61.677c-3.708-24.378-0.908-50.602,10.521-72.853C315.958,289.38,359.667,253.667,371,244.333
			z"/>
		
			<linearGradient id="SVGID_00000026152924943103266970000016562504646133527471_" gradientUnits="userSpaceOnUse" x1="468.0112" y1="201.3357" x2="397.0112" y2="680.3357">
			<stop  offset="0" style="stop-color:#EB1B90"/>
			<stop  offset="0.2325" style="stop-color:#F0576B"/>
			<stop  offset="0.4993" style="stop-color:#F59644"/>
			<stop  offset="0.7257" style="stop-color:#F9C328"/>
			<stop  offset="0.8995" style="stop-color:#FBE016"/>
			<stop  offset="1" style="stop-color:#FCEA10"/>
		</linearGradient>
		<path style="fill:url(#SVGID_00000026152924943103266970000016562504646133527471_);" d="M503.667,209
			c0.813,26.457,7.894,59.487-11.352,83.888c-10.908,13.83-26,25.294-39.304,36.931c-22.024,19.266-35.815,45.188-36.826,74.879
			c-0.986,28.951,15.217,63.106,34.148,84.301c-18.667-19.333-28.681-32.712-35.499-45.82
			c-9.465-18.197-17.909-38.953-18.516-59.712c-0.68-23.284,11.842-41.16,27.158-57.552c17.182-18.389,41.689-27.746,59.83-44.918
			c7.753-7.339,14.309-22.045,15.694-32.666C501,233,503.712,228.305,503.667,209z"/>
		
			<linearGradient id="SVGID_00000158725582664639898720000002556642908949207206_" gradientUnits="userSpaceOnUse" x1="160.3557" y1="527.249" x2="415.8173" y2="135.2475">
			<stop  offset="0" style="stop-color:#DCED00;stop-opacity:0.7"/>
			<stop  offset="0.1451" style="stop-color:#D8EC02;stop-opacity:0.7435"/>
			<stop  offset="0.2811" style="stop-color:#CDE709;stop-opacity:0.7843"/>
			<stop  offset="0.4136" style="stop-color:#BAE014;stop-opacity:0.8241"/>
			<stop  offset="0.5438" style="stop-color:#9FD623;stop-opacity:0.8631"/>
			<stop  offset="0.6725" style="stop-color:#7DCA37;stop-opacity:0.9018"/>
			<stop  offset="0.7999" style="stop-color:#53BA4F;stop-opacity:0.94"/>
			<stop  offset="0.924" style="stop-color:#22A86B;stop-opacity:0.9772"/>
			<stop  offset="1" style="stop-color:#009B7F"/>
		</linearGradient>
		<path style="fill:url(#SVGID_00000158725582664639898720000002556642908949207206_);" d="M418.333,173.667
			c-12.367,11.803-23.326,22.982-37.469,33.501c-26.093,19.406-53.34,37.494-78.383,58.336
			c-47.797,39.778-76.148,84.83-91.227,156.393c-4.442,21.084-6.112,41.918-4.919,63.271c1.331,23.834,5.998,43.167,13.119,57.68
			c-13.788-19.846-19.584-33.418-22.433-49.185c-3.109-17.202-5.329-33.724-4.537-51.288c1.688-37.455,11.925-77.642,28.302-111.372
			c14.858-30.6,37.887-56.43,63.298-78.582c17.385-15.155,37.099-27.665,56.941-39.472c12.132-7.219,24.421-13.981,37.215-19.929
			C393.18,186.072,416.061,180.642,418.333,173.667z"/>
		
			<linearGradient id="SVGID_00000038395644900550282580000010390080317705244056_" gradientUnits="userSpaceOnUse" x1="73.6952" y1="301.5564" x2="445.0083" y2="81.0617">
			<stop  offset="0" style="stop-color:#DCED00;stop-opacity:0.7"/>
			<stop  offset="0.1451" style="stop-color:#D8EC02;stop-opacity:0.7435"/>
			<stop  offset="0.2811" style="stop-color:#CDE709;stop-opacity:0.7843"/>
			<stop  offset="0.4136" style="stop-color:#BAE014;stop-opacity:0.8241"/>
			<stop  offset="0.5438" style="stop-color:#9FD623;stop-opacity:0.8631"/>
			<stop  offset="0.6725" style="stop-color:#7DCA37;stop-opacity:0.9018"/>
			<stop  offset="0.7999" style="stop-color:#53BA4F;stop-opacity:0.94"/>
			<stop  offset="0.924" style="stop-color:#22A86B;stop-opacity:0.9772"/>
			<stop  offset="1" style="stop-color:#009B7F"/>
		</linearGradient>
		<path style="fill:url(#SVGID_00000038395644900550282580000010390080317705244056_);" d="M378.333,145
			c-19.532,16.938-43.439,24.248-68.602,31c-19.755,5.301-39.893,9.011-60.395,9c-21.019-0.011-41.462-0.344-62.218,3.464
			c-44.885,8.235-95.166,36.987-108.499,66.987c-7.316,16.461-7.333,36.33,1.725,52.618c5.917,10.64,17.457,18.5,29.306,19.596
			c13.108,1.212,25.906-8.798,28.547-21.998c1.648-8.234-5.521-16.949-13.629-12.495c5.659,3.725,3.173,13.483-2.04,16.558
			c-6.647,3.92-14.864,0.042-19.058-5.388c-17.165-22.219,7.099-51.207,23.667-64.372c18.283-14.527,42.38-25.418,64.944-30.88
			c25.92-6.275,54.596-3.888,81.083-2.907c48.054,1.78,94.328-11.319,129.668-45.101c10.191-9.742,26.324-28.743,24.754-44.753
			C408.989,125.743,391.714,140.108,378.333,145z"/>
		
			<linearGradient id="SVGID_00000155113287315594749160000008489706721012946342_" gradientUnits="userSpaceOnUse" x1="289.3276" y1="479.329" x2="533.3375" y2="78.5186">
			<stop  offset="0" style="stop-color:#DCED00;stop-opacity:0.7"/>
			<stop  offset="0.1451" style="stop-color:#D8EC02;stop-opacity:0.7435"/>
			<stop  offset="0.2811" style="stop-color:#CDE709;stop-opacity:0.7843"/>
			<stop  offset="0.4136" style="stop-color:#BAE014;stop-opacity:0.8241"/>
			<stop  offset="0.5438" style="stop-color:#9FD623;stop-opacity:0.8631"/>
			<stop  offset="0.6725" style="stop-color:#7DCA37;stop-opacity:0.9018"/>
			<stop  offset="0.7999" style="stop-color:#53BA4F;stop-opacity:0.94"/>
			<stop  offset="0.924" style="stop-color:#22A86B;stop-opacity:0.9772"/>
			<stop  offset="1" style="stop-color:#009B7F"/>
		</linearGradient>
		<path style="fill:url(#SVGID_00000155113287315594749160000008489706721012946342_);" d="M550.333,101
			c-4.424,4.677-4.857,14.241-9.052,20.056c-8.547,11.849-20.756,20.225-31.029,30.528c-25.351,25.424-52.679,48.233-73.287,78.127
			c-9.309,13.504-13.547,28.657-18.6,43.956c-5.438,16.464-10.368,31.764-13.183,48.923c-5.956,36.315-14.701,74.476-31.853,107.263
			c-8.685,16.602-20.678,31.454-37.148,40.431c-10.511,5.729-20.86,7.168-31.726,11.465c37.538-13.647,48.965-61.126,51.275-96.491
			c4.663-71.373,11.484-152.044,68.189-203.339c16.872-15.262,37.887-23.836,58.255-33.44c11.146-5.255,22.646-9.717,33.185-16.131
			C523.325,127.502,542.482,119.406,550.333,101z"/>
		
			<linearGradient id="SVGID_00000114074605051239346050000014709741283165818797_" gradientUnits="userSpaceOnUse" x1="248.6933" y1="365.1419" x2="477.7278" y2="129.9411">
			<stop  offset="0" style="stop-color:#DCED00;stop-opacity:0.7"/>
			<stop  offset="0.1451" style="stop-color:#D8EC02;stop-opacity:0.7435"/>
			<stop  offset="0.2811" style="stop-color:#CDE709;stop-opacity:0.7843"/>
			<stop  offset="0.4136" style="stop-color:#BAE014;stop-opacity:0.8241"/>
			<stop  offset="0.5438" style="stop-color:#9FD623;stop-opacity:0.8631"/>
			<stop  offset="0.6725" style="stop-color:#7DCA37;stop-opacity:0.9018"/>
			<stop  offset="0.7999" style="stop-color:#53BA4F;stop-opacity:0.94"/>
			<stop  offset="0.924" style="stop-color:#22A86B;stop-opacity:0.9772"/>
			<stop  offset="1" style="stop-color:#009B7F"/>
		</linearGradient>
		<path style="fill:url(#SVGID_00000114074605051239346050000014709741283165818797_);" d="M451.892,144.489
			c-14.602-1.444-31.627,12.741-43.332,19.863c-15.884,9.665-31.227,19.741-42.398,34.942
			c-27.375,37.252-24.097,89.59-57.524,122.358c-14.189,13.91-34.983,26.33-49.415,31.381c-11.063,3.872-26.699,7.938-43.795,7.954
			c13.782,5.886,35.87,1.201,49.895-1.988c24.837-5.647,52.462-20.627,71.232-37.898c24.536-22.575,33.233-53.521,46.572-82.75
			c16.815-36.848,44.571-81.397,86.083-93.863"/>
		
			<linearGradient id="SVGID_00000152968467329676624130000007707480799786084016_" gradientUnits="userSpaceOnUse" x1="224.0879" y1="167.8423" x2="511.2619" y2="90.3229">
			<stop  offset="0" style="stop-color:#DCED00;stop-opacity:0.7"/>
			<stop  offset="0.1451" style="stop-color:#D8EC02;stop-opacity:0.7435"/>
			<stop  offset="0.2811" style="stop-color:#CDE709;stop-opacity:0.7843"/>
			<stop  offset="0.4136" style="stop-color:#BAE014;stop-opacity:0.8241"/>
			<stop  offset="0.5438" style="stop-color:#9FD623;stop-opacity:0.8631"/>
			<stop  offset="0.6725" style="stop-color:#7DCA37;stop-opacity:0.9018"/>
			<stop  offset="0.7999" style="stop-color:#53BA4F;stop-opacity:0.94"/>
			<stop  offset="0.924" style="stop-color:#22A86B;stop-opacity:0.9772"/>
			<stop  offset="1" style="stop-color:#009B7F"/>
		</linearGradient>
		<path style="fill:url(#SVGID_00000152968467329676624130000007707480799786084016_);" d="M387.669,105.522
			c-33.12,0.098-56.054,18.635-81.521,37.543c-13.2,9.8-27.755,18.827-42.593,25.835c-8.579,4.052-25.701,10.729-34.579,8.205
			c34.057,6.599,66.861-8.345,98.389-18.536c21.178-6.845,39.164-20.029,58.86-30.044c24.997-12.71,45.765-18.254,73.337-20.277
			c-11.652-2.94-26.758-2.759-39.006-2.726C409.73,105.551,386.235,111.598,387.669,105.522z"/>
		
			<linearGradient id="SVGID_00000119075815893098214530000017201923035667609232_" gradientUnits="userSpaceOnUse" x1="463.715" y1="307.7289" x2="552.6861" y2="108.645">
			<stop  offset="0" style="stop-color:#DCED00;stop-opacity:0.7"/>
			<stop  offset="0.1451" style="stop-color:#D8EC02;stop-opacity:0.7435"/>
			<stop  offset="0.2811" style="stop-color:#CDE709;stop-opacity:0.7843"/>
			<stop  offset="0.4136" style="stop-color:#BAE014;stop-opacity:0.8241"/>
			<stop  offset="0.5438" style="stop-color:#9FD623;stop-opacity:0.8631"/>
			<stop  offset="0.6725" style="stop-color:#7DCA37;stop-opacity:0.9018"/>
			<stop  offset="0.7999" style="stop-color:#53BA4F;stop-opacity:0.94"/>
			<stop  offset="0.924" style="stop-color:#22A86B;stop-opacity:0.9772"/>
			<stop  offset="1" style="stop-color:#009B7F"/>
		</linearGradient>
		<path style="fill:url(#SVGID_00000119075815893098214530000017201923035667609232_);" d="M530.547,126.448
			c-14.181,3.925-2.166,55.819-2.165,67.38c0.002,28.371-12.193,54.171-34.073,72.451c-14.451,12.073-27.315,23.024-43.638,32.019
			c16.088-11.387,28.52-25.327,33.515-44.831c3.731-14.572,4.382-30.157,7.395-44.963
			C497.381,179.997,504.762,154.961,530.547,126.448z"/>
		
			<linearGradient id="SVGID_00000081626588040693731040000009585400635428571267_" gradientUnits="userSpaceOnUse" x1="432.0889" y1="257.4764" x2="537.7971" y2="64.5589">
			<stop  offset="0" style="stop-color:#DCED00;stop-opacity:0.7"/>
			<stop  offset="0.1451" style="stop-color:#D8EC02;stop-opacity:0.7435"/>
			<stop  offset="0.2811" style="stop-color:#CDE709;stop-opacity:0.7843"/>
			<stop  offset="0.4136" style="stop-color:#BAE014;stop-opacity:0.8241"/>
			<stop  offset="0.5438" style="stop-color:#9FD623;stop-opacity:0.8631"/>
			<stop  offset="0.6725" style="stop-color:#7DCA37;stop-opacity:0.9018"/>
			<stop  offset="0.7999" style="stop-color:#53BA4F;stop-opacity:0.94"/>
			<stop  offset="0.924" style="stop-color:#22A86B;stop-opacity:0.9772"/>
			<stop  offset="1" style="stop-color:#009B7F"/>
		</linearGradient>
		<path style="fill:url(#SVGID_00000081626588040693731040000009585400635428571267_);" d="M504.569,102.635
			c-6.529-2.64-17.785,8.422-21.233,13.35c-5.994,8.567-7.311,19.861-8.353,29.947c-2.832,27.407-1.697,54.282-10.845,80.716
			c-4.656,13.453-13.231,18.959-24.454,25.953c28.97-7.387,44.751-31.61,44.679-60.119c-0.038-15.164,0.969-29.429,6.848-43.637
			c5.511-13.319,17.129-21.266,28.9-28.529c11.788-7.273,18.537-18.86,17.703-33.371C530.51,100.737,516.434,96.51,504.569,102.635z
			"/>
		
			<linearGradient id="SVGID_00000022542056796864132180000007461147735868935808_" gradientUnits="userSpaceOnUse" x1="330.0984" y1="150.2704" x2="523.0159" y2="93.8926">
			<stop  offset="0" style="stop-color:#DCED00;stop-opacity:0.7"/>
			<stop  offset="0.1451" style="stop-color:#D8EC02;stop-opacity:0.7435"/>
			<stop  offset="0.2811" style="stop-color:#CDE709;stop-opacity:0.7843"/>
			<stop  offset="0.4136" style="stop-color:#BAE014;stop-opacity:0.8241"/>
			<stop  offset="0.5438" style="stop-color:#9FD623;stop-opacity:0.8631"/>
			<stop  offset="0.6725" style="stop-color:#7DCA37;stop-opacity:0.9018"/>
			<stop  offset="0.7999" style="stop-color:#53BA4F;stop-opacity:0.94"/>
			<stop  offset="0.924" style="stop-color:#22A86B;stop-opacity:0.9772"/>
			<stop  offset="1" style="stop-color:#009B7F"/>
		</linearGradient>
		<path style="fill:url(#SVGID_00000022542056796864132180000007461147735868935808_);" d="M451.892,104.079
			c-10.785,0.036-20.921,1.59-31.066,5.615c-11.532,4.575-20.662,12.666-31.679,18.201c-16.095,8.086-34.159,18.018-51.933,14.734
			c7.832,4.049,18.414,3.532,27.084,3.964c14.647,0.729,28.594,0.006,42.804-3.476c20.246-4.962,41.301-12.907,55.253-28.927
			c6.919-7.944,15.263-21.636,25.413-25.315c-7.247,1.247-15.124,5.114-21.479,8.731
			C461.727,100.202,457.578,104.642,451.892,104.079z"/>
		
			<linearGradient id="SVGID_00000066498927284443441820000001479292087416180870_" gradientUnits="userSpaceOnUse" x1="343.8386" y1="99.9382" x2="533.2325" y2="73.5112">
			<stop  offset="0" style="stop-color:#DCED00;stop-opacity:0.7"/>
			<stop  offset="0.1451" style="stop-color:#D8EC02;stop-opacity:0.7435"/>
			<stop  offset="0.2811" style="stop-color:#CDE709;stop-opacity:0.7843"/>
			<stop  offset="0.4136" style="stop-color:#BAE014;stop-opacity:0.8241"/>
			<stop  offset="0.5438" style="stop-color:#9FD623;stop-opacity:0.8631"/>
			<stop  offset="0.6725" style="stop-color:#7DCA37;stop-opacity:0.9018"/>
			<stop  offset="0.7999" style="stop-color:#53BA4F;stop-opacity:0.94"/>
			<stop  offset="0.924" style="stop-color:#22A86B;stop-opacity:0.9772"/>
			<stop  offset="1" style="stop-color:#009B7F"/>
		</linearGradient>
		<path style="fill:url(#SVGID_00000066498927284443441820000001479292087416180870_);" d="M494.467,62.226
			c-9.786,11.18-30.251,17.071-44.702,20.047c-25.116,5.172-48.654,1.519-73.633-1.257c-14.193-1.577-30.854-2.579-43.782,5.058
			c12.577-0.21,23.194,1.018,35.334,3.493c13.459,2.744,23.853,10.2,36.549,14.24c26.505,8.434,47.765-1.549,68.92-15.964
			c9.821-6.692,18.424-13.521,29.102-18.547C498.403,67.328,495.881,64.332,494.467,62.226z"/>
		
			<linearGradient id="SVGID_00000145055842697597886480000001437208518910733453_" gradientUnits="userSpaceOnUse" x1="487.3096" y1="139.2372" x2="531.3547" y2="63.4796">
			<stop  offset="0" style="stop-color:#DCED00;stop-opacity:0.7"/>
			<stop  offset="0.1451" style="stop-color:#D8EC02;stop-opacity:0.7435"/>
			<stop  offset="0.2811" style="stop-color:#CDE709;stop-opacity:0.7843"/>
			<stop  offset="0.4136" style="stop-color:#BAE014;stop-opacity:0.8241"/>
			<stop  offset="0.5438" style="stop-color:#9FD623;stop-opacity:0.8631"/>
			<stop  offset="0.6725" style="stop-color:#7DCA37;stop-opacity:0.9018"/>
			<stop  offset="0.7999" style="stop-color:#53BA4F;stop-opacity:0.94"/>
			<stop  offset="0.924" style="stop-color:#22A86B;stop-opacity:0.9772"/>
			<stop  offset="1" style="stop-color:#009B7F"/>
		</linearGradient>
		<path style="fill:url(#SVGID_00000145055842697597886480000001437208518910733453_);" d="M517.558,82.431
			c-10.659,0.083-12.078,15.736-14.494,22.723c-3.705,10.715-6.468,20.118-16.48,25.478c24.204-2.654,23.978-27.76,37.94-41.146
			C522.384,87.387,520.306,85.347,517.558,82.431z"/>
		
			<linearGradient id="SVGID_00000057832564790220818800000016434291130233235107_" gradientUnits="userSpaceOnUse" x1="255.1754" y1="323.351" x2="485" y2="323.351">
			<stop  offset="0" style="stop-color:#FFC202;stop-opacity:0.7"/>
			<stop  offset="0.1964" style="stop-color:#FEBE03;stop-opacity:0.7589"/>
			<stop  offset="0.3805" style="stop-color:#FCB305;stop-opacity:0.8141"/>
			<stop  offset="0.5596" style="stop-color:#F9A009;stop-opacity:0.8679"/>
			<stop  offset="0.7356" style="stop-color:#F4850F;stop-opacity:0.9207"/>
			<stop  offset="0.9079" style="stop-color:#ED6316;stop-opacity:0.9724"/>
			<stop  offset="1" style="stop-color:#E94E1B"/>
		</linearGradient>
		<path style="fill:url(#SVGID_00000057832564790220818800000016434291130233235107_);" d="M485,155
			c-8.43-1.013-57.296,19.925-64.015,24.151c-11.392,7.164-20.863,14.534-29.985,24.46c-16.151,17.575-28.796,38.176-37.333,60.518
			c-4.691,12.278-10.728,24.484-13.005,37.508c-2.172,12.427-5.183,29.057-7.661,41.362c-6.113,30.35-11.409,56.939-22.635,85.811
			c-9.491,24.411-30.969,51.295-55.189,62.903c11.657,0.804,30.509-19.335,38.526-26.603c13.324-12.08,24.695-26.637,33.152-42.616
			c13.318-25.164,18.277-52.408,25.431-79.627c9.08-34.55,21.401-66.295,39.067-97.4c8.495-14.957,19.729-28.523,30.833-41.599
			c6.505-7.661,11.345-14.971,19.243-21.359C443.814,180.579,457.667,167,485,155z"/>
		
			<linearGradient id="SVGID_00000051385785620477516420000007120293377674900134_" gradientUnits="userSpaceOnUse" x1="410.7619" y1="233.8954" x2="553.7378" y2="233.8954">
			<stop  offset="0" style="stop-color:#FFC202;stop-opacity:0.7"/>
			<stop  offset="0.1964" style="stop-color:#FEBE03;stop-opacity:0.7589"/>
			<stop  offset="0.3805" style="stop-color:#FCB305;stop-opacity:0.8141"/>
			<stop  offset="0.5596" style="stop-color:#F9A009;stop-opacity:0.8679"/>
			<stop  offset="0.7356" style="stop-color:#F4850F;stop-opacity:0.9207"/>
			<stop  offset="0.9079" style="stop-color:#ED6316;stop-opacity:0.9724"/>
			<stop  offset="1" style="stop-color:#E94E1B"/>
		</linearGradient>
		<path style="fill:url(#SVGID_00000051385785620477516420000007120293377674900134_);" d="M541.667,113
			c-11.341,3.09-21.679,14.513-28.999,23.667c-11.081,13.856-21.311,28.613-27.182,45.678c-6.513,18.932-8.513,38.302-17.486,56.522
			c-9.03,18.334-24.78,32.405-36.5,48.953c-7.293,10.298-13.144,22.592-17.165,34.51c-1.957,5.801-2.978,11.114-3.499,17.219
			c-0.451,5.286,1.321,10.081,0.833,15.258c4.703-45.355,51.122-70.634,71.477-107.771c9.452-17.245,11.531-35.102,16.688-53.7
			c2.722-9.816,5.98-20.27,10.465-29.503c4.984-10.26,12.677-17.581,20.717-25.515c3.619-3.572,7.203-6.972,11.836-9.185
			c2.34-1.118,6.961-1.259,8.815-2.8c3.051-2.535,2.741-3.498-0.992-7.697C548.437,116.119,544.157,112.721,541.667,113z"/>
		
			<linearGradient id="SVGID_00000127760094850066613710000011010863808365029053_" gradientUnits="userSpaceOnUse" x1="408.5205" y1="235.4793" x2="542.3381" y2="235.4793">
			<stop  offset="0" style="stop-color:#FFC202;stop-opacity:0.7"/>
			<stop  offset="0.1964" style="stop-color:#FEBE03;stop-opacity:0.7589"/>
			<stop  offset="0.3805" style="stop-color:#FCB305;stop-opacity:0.8141"/>
			<stop  offset="0.5596" style="stop-color:#F9A009;stop-opacity:0.8679"/>
			<stop  offset="0.7356" style="stop-color:#F4850F;stop-opacity:0.9207"/>
			<stop  offset="0.9079" style="stop-color:#ED6316;stop-opacity:0.9724"/>
			<stop  offset="1" style="stop-color:#E94E1B"/>
		</linearGradient>
		<path style="fill:url(#SVGID_00000127760094850066613710000011010863808365029053_);" d="M521.667,122.333
			c-1.25,0.094,3.82,0.101,2.121-0.015c-12.759,2.093-24.961,12.024-32.939,21.951c-36.522,45.446-16.444,103.466-26.333,155.231
			c-3.016,15.79-7.955,32.795-15.843,46.892c-6.652,11.888-26.5,32.284-40.153,34.666c15.252-16.223,29.006-33.952,31.918-56.719
			c5.252-41.061-11.054-82.196-6.936-123.32c2.038-20.347,15.185-39.559,26.886-55.686c6.852-9.444,14.238-17.366,23.145-24.849
			c4.408-3.703,9.151-9.072,14.8-10.817c8.151-10.572,24.326-13.619,35.365-19.766c-0.849,7.624,8.886,12.7,8.635,21.433
			c-0.184,6.389-0.872,6.259-6.667,7.701C531.622,120.041,525.685,122.031,521.667,122.333z"/>
		
			<linearGradient id="SVGID_00000024681932104634868710000005052471597575137695_" gradientUnits="userSpaceOnUse" x1="356.5208" y1="270.4696" x2="456.9434" y2="270.4696">
			<stop  offset="0" style="stop-color:#FFC202;stop-opacity:0.7"/>
			<stop  offset="0.1964" style="stop-color:#FEBE03;stop-opacity:0.7589"/>
			<stop  offset="0.3805" style="stop-color:#FCB305;stop-opacity:0.8141"/>
			<stop  offset="0.5596" style="stop-color:#F9A009;stop-opacity:0.8679"/>
			<stop  offset="0.7356" style="stop-color:#F4850F;stop-opacity:0.9207"/>
			<stop  offset="0.9079" style="stop-color:#ED6316;stop-opacity:0.9724"/>
			<stop  offset="1" style="stop-color:#E94E1B"/>
		</linearGradient>
		<path style="fill:url(#SVGID_00000024681932104634868710000005052471597575137695_);" d="M455.5,173.353
			c-42.575,14.432-59.635,33.317-66.06,42.512c-8.669,12.406-14.546,28.289-16.04,43.359c-2.736,27.59,9.59,53.505,6.991,81.127
			c-1.374,14.604-11.445,23.082-23.871,27.111c18.682,1.582,36.164-12.147,43.845-27.771c7.58-15.419,6.832-33.019,6.788-49.902
			c-0.094-35.89,19.64-91.637,49.789-114.993"/>
		
			<linearGradient id="SVGID_00000168098386490968043270000006321687331925132969_" gradientUnits="userSpaceOnUse" x1="535.8264" y1="98.3005" x2="454.8264" y2="394.3005">
			<stop  offset="0" style="stop-color:#EB1B90"/>
			<stop  offset="0.2325" style="stop-color:#F0576B"/>
			<stop  offset="0.4993" style="stop-color:#F59644"/>
			<stop  offset="0.7257" style="stop-color:#F9C328"/>
			<stop  offset="0.8995" style="stop-color:#FBE016"/>
			<stop  offset="1" style="stop-color:#FCEA10"/>
		</linearGradient>
		<path style="fill:url(#SVGID_00000168098386490968043270000006321687331925132969_);" d="M548.587,106.243
			c-1.362,24.258-23.978,41.587-30.126,64.202c-7.124,26.206,3.495,53.264-0.271,79.997c-2.393,16.984-6.432,32.249-22.081,40.979
			c12.607-7.61,8.604-32.504,6.496-44.27c-4.233-23.629-8.652-47.214-9.737-71.25c-1.02-22.588,9.711-45.976,27.755-60.331
			C527.788,109.87,537.271,106.983,548.587,106.243z"/>
		
			<linearGradient id="SVGID_00000168091677812781421380000001219735257773146512_" gradientUnits="userSpaceOnUse" x1="306.9304" y1="113.9174" x2="500.9595" y2="113.9174">
			<stop  offset="0" style="stop-color:#FFC202;stop-opacity:0.7"/>
			<stop  offset="0.1964" style="stop-color:#FEBE03;stop-opacity:0.7589"/>
			<stop  offset="0.3805" style="stop-color:#FCB305;stop-opacity:0.8141"/>
			<stop  offset="0.5596" style="stop-color:#F9A009;stop-opacity:0.8679"/>
			<stop  offset="0.7356" style="stop-color:#F4850F;stop-opacity:0.9207"/>
			<stop  offset="0.9079" style="stop-color:#ED6316;stop-opacity:0.9724"/>
			<stop  offset="1" style="stop-color:#E94E1B"/>
		</linearGradient>
		<path style="fill:url(#SVGID_00000168091677812781421380000001219735257773146512_);" d="M500.24,66.555
			c-7.25-3.999-20.638,5.955-27.059,9.66c-9.218,5.32-18.333,10.471-28.085,14.813c-27.27,12.143-55.549,2.007-82.993,11.393
			c-29.166,9.975-43.723,32.704-55.172,59.79c10.634-22.278,37.742-37.475,61.256-42.435c17.911-3.778,32.657,0.685,49.951,3.965
			c19.872,3.769,38.148-5.124,52.493-18.743c8.398-7.972,16.748-28.068,30.259-28.45C501.351,72.923,499.348,69.942,500.24,66.555z"
			/>
		
			<linearGradient id="SVGID_00000016051600254285160350000004357617105876033199_" gradientUnits="userSpaceOnUse" x1="548.7218" y1="61.9639" x2="177.7218" y2="316.9639">
			<stop  offset="0" style="stop-color:#EB1B90"/>
			<stop  offset="0.2325" style="stop-color:#F0576B"/>
			<stop  offset="0.4993" style="stop-color:#F59644"/>
			<stop  offset="0.7257" style="stop-color:#F9C328"/>
			<stop  offset="0.8995" style="stop-color:#FBE016"/>
			<stop  offset="1" style="stop-color:#FCEA10"/>
		</linearGradient>
		<path style="fill:url(#SVGID_00000016051600254285160350000004357617105876033199_);" d="M519.723,78.822
			c-9.904-2.393-21.965,3.719-28.503,11.52c-12.006,14.324-20.253,30.469-34.963,42.744c-19.54,16.305-39.391,27.542-64.377,32.889
			c-21.923,4.692-45.627,4.401-64.165,18.283c-21.671,16.229-26.001,34.09-33.796,58.319c12.361-11.099,20.941-20.308,36.08-28.097
			c10.977-5.647,22.042-11.392,33.893-15.187c23.089-7.394,45.131-12.531,65.648-25.779c13.477-8.703,21.194-21.259,31.011-33.334
			c8.324-10.24,17.464-16.593,28.686-23.315c13.424-8.042,22.007-19.537,28.407-33.767C517.297,81.822,516.961,82.94,519.723,78.822
			z"/>
		<path style="fill:#1D1D1B;" d="M489.667,63.167c11.131-8.829,25.25-3.417,28.917-6.667c6.986-1.942,7.484,2.369,15.417,3
			c-0.842-0.067,12.515,5.384,12,5c3.814,2.843,2.109,2.343,5,3.625c0.031,0.014,6.75,1.75,10,2.75
			c9.895,3.045,12.966,2.871,15.685,16.947c1.867,9.666,7.893,18.291,10.69,27.803c2.003,6.812,2.161,14.325,5.375,20.75
			c5.956,11.908,17.723,24.7,26.917,34.292c10.733,11.197,19.34,15.942,19.189,31.412c-0.131,13.502-15.189,23.588-19.523,40.588
			C613.789,273.274,609.768,302.25,597,331c-4.985,11.224-14.324,26.078-21.333,36c-10.88,15.402-1.966,31.429,5.907,46.888
			c14.67,28.805,33.427,71.649,45.426,101.779c7.5,18.833,0.174,48.121,1.333,73.333c1.482,32.237,2.779,71.984,8.498,103.903
			c3.789,21.142,4.113,39.887,22.576,52.032c1.669,1.098,3.411,2.157,4.698,3.686c1.287,1.528,2.058,3.66,1.425,5.555
			c-1.088,3.262-5.353,3.557-8.79,3.666C641.814,758.315,632,753.25,627.5,742.75c-3.284-7.663-5.833-10.75-11.833-17.75
			c-6.463-7.54-24.629-12.158-18.917-25.75c4.37-10.398,10.861-14.509,10.75-26.75c-0.086-9.478-1.849-25.84-4-35
			c-5.639-24.012-12.879-35.728-14.5-60.5c-1.308-19.981,8.552-33.22,0-51.5c-8.591-18.365-34.034-38.742-46-55
			c-15.333-20.833-26-48.167-34-52.833c-6-0.667-36.623,16.072-45.744,20.23c-25.642,11.688-93.308,43.871-119.979,23.929
			c-14.83-11.089-15.859-34.121-20.277-50.45c-4.474-16.536-6.757-32.913-11.5-49.375c-10.232-35.515-16.461-59.156-46.5-87.5
			c-5.873-5.542-14.465-14.762-19.75-20.875c-0.964-1.114-16.425-13.348-16.5-13.75c-1.249-6.727,15.231-7.204,19.375-5.75
			c10.467,3.672,19.909,16.838,34,21.375c9.807,3.158,26.941,5.147,33.208,14.5c6.05,9.028-3.659,18.971-1.667,29
			c3.458,17.406,15.887,38.175,24.667,53.333c11.637,20.091,27.908,48.498,26,72.667c20.004,0.065,39.997-19.258,56-29.333
			c14.692-9.25,34.326-19.455,42-35.333c6.121-12.665,8.781-26.667,20.167-35.333c11.201-8.526,22.025-11.248,35-15.375
			c35.5-11.292,33.407-34.632,30.833-59.292c-3.66-35.066-41.114-90.973-15.439-123.442c2.147-2.716,10.279-7.035,7.421-16.011
			c-0.839-2.635-1.125-9.276-2.19-11.38c-3.202-6.327-9.497-7.051-13.109-11.719c-2.438-3.15,4.516-5.463-0.141-9.656
			c-2.636-2.374-8.886-1.964-12.125-4C503.094,68.056,501.986,65.562,489.667,63.167z"/>
		<path style="fill:#1D1D1B;" d="M489.454,60.211c0,0,4.634-3.111,8.138-4.35s7.629-1.227,9.255-1.597
			c1.626-0.37,4.626-0.486,6.75,0.145c2.123,0.631,3.119,2.134,6.872,0.896s12.15-8.213,14.529-9.706
			c2.38-1.493,3.879-1.363,4.749,0.264c0.87,1.628,0.982,5.878,1.73,6.505c0.748,0.627,1.997,1.131,3.499,0.386
			c1.502-0.745,2.505-1.617,3.499,0.261c0.994,1.878,0.606,6.377,1.604,6.88s3.253-0.99,4.507-2.236
			c1.254-1.246,2.257-2.243,4.003-0.988c1.746,1.255,1.618,2.255,4.742,2.764s7.504-1.227,10.245,1.656
			c2.741,2.883,1.47,7.617,1.59,9.242c0.12,1.625,1.5,7.333,1.833,19.167c0.127,4.5-20.411,8.665-33.037,8.877
			c-12.626,0.212-47.306-22.894-50.163-28.652C490.942,63.966,489.454,60.211,489.454,60.211z"/>
		<path style="fill:#1D1D1B;" d="M555.583,128.417c-8.342,1.267-13.471,3.767-31.5,12.5c-16,7.75-28.5,10.75-38.334,9.333
			c-7.523-1.084-15.748-0.592-31.167,2.417c-20.5,4-45.25,3.333-50.917,0.667c-5.667-2.667-14.5-9.583-18.166-13.583
			s-7.25-5.333-9.25-7.917c-1.554-2.007-3.667-5.083-5-3.417c-1.333,1.667-0.167,4,3.5,9s9.302,9.105,7.583,13.083
			c-1.458,3.375-9.117,6.271-15.785,6.142c-6.008-0.117-12.661-0.396-21.046,0.566s-11.327,1.498-11.03,4.181
			c0.192,1.73,4.688,1.612,14.361,1.612c10.167,0,19.5-2.333,19.625,1.917c0.049,1.666-15.757,4.117-22.715,5.952
			c-6.958,1.835-13.902,4.212-12.726,6.309c1.174,2.094,8.318,0.43,14.24-0.594c6.724-1.163,11.486-2.445,13.811-2.834
			s7.766-2.25,7.766,0.417c0,2.667-11.083,7.417-14.167,9.417c-2.973,1.928-11.465,5.645-11,8.25
			c0.625,3.5,9.667-1.167,15.167-4.292c5.882-3.342,11.101-6.747,13.667-4.792c2.625,2-1.805,5.067-4.625,8
			c-3.125,3.25-8.286,6.196-8.625,9.25c-0.25,2.25,2.708,1.958,6.375-0.375s5.75-3.875,9-6.375c3.181-2.447,6.417-5.667,10.75-8
			s12-6.125,15.5-8.125c2.49-1.423,9.542-4.042,14.208-3.708c4.667,0.333,32.062,1.087,42,2.25c23.5,2.75,34.691-2.409,44.25-1.75
			c7.25,0.5,46.702-2.204,61.667-1.417c19,1,25-20,19.5-30.5C577.548,132.547,570.8,126.105,555.583,128.417z"/>
	</g>
</g>
</svg>
